<?xml version="1.0" encoding="UTF-8" standalone="no"?>
<!DOCTYPE svg PUBLIC "-//W3C//DTD SVG 1.1//EN" "http://www.w3.org/Graphics/SVG/1.1/DTD/svg11.dtd">
<svg width="100%" height="100%" viewBox="0 0 733 24" version="1.1" xmlns="http://www.w3.org/2000/svg" xmlns:xlink="http://www.w3.org/1999/xlink" xml:space="preserve" xmlns:serif="http://www.serif.com/" style="fill-rule:evenodd;clip-rule:evenodd;">
    <g id="rechts" transform="matrix(1,0,0,1,376.224,5.72813)">
        <g transform="matrix(0.00414951,0,0,0.00414951,-9356.91,-5993.98)">
            <path d="M2.32452e+06,1.44454e+06L2.32041e+06,1.44595e+06L2.32452e+06,1.44737e+06L2.32991e+06,1.44737e+06L2.32991e+06,1.44454e+06L2.32452e+06,1.44454e+06Z" style="fill:rgb(167,61,0);fill-rule:nonzero;stroke:rgb(255,157,157);stroke-width:0.57px;"/>
        </g>
        <g transform="matrix(0.00414951,0,0,0.00414951,-9356.91,-5993.98)">
            <path d="M2.33544e+06,1.44454e+06L2.33133e+06,1.44595e+06L2.33544e+06,1.44737e+06L2.34082e+06,1.44737e+06L2.34082e+06,1.44454e+06L2.33544e+06,1.44454e+06Z" style="fill:rgb(167,61,0);fill-rule:nonzero;stroke:rgb(255,157,157);stroke-width:0.57px;"/>
        </g>
        <g transform="matrix(0.00414951,0,0,0.00414951,-9356.91,-5993.98)">
            <path d="M2.31361e+06,1.44454e+06L2.3095e+06,1.44595e+06L2.31361e+06,1.44737e+06L2.319e+06,1.44737e+06L2.319e+06,1.44454e+06L2.31361e+06,1.44454e+06Z" style="fill:rgb(167,61,0);fill-rule:nonzero;stroke:rgb(255,157,157);stroke-width:0.57px;"/>
        </g>
        <g transform="matrix(0.00414951,0,0,0.00414951,-9356.91,-5993.98)">
            <path d="M2.25496e+06,1.44454e+06L2.25496e+06,1.44737e+06L2.26035e+06,1.44737e+06L2.26446e+06,1.44595e+06L2.26035e+06,1.44454e+06L2.25496e+06,1.44454e+06Z" style="fill:rgb(167,61,0);fill-rule:nonzero;stroke:rgb(255,157,157);stroke-width:0.57px;"/>
        </g>
        <g transform="matrix(0.00414951,0,0,0.00414951,-9356.91,-5993.98)">
            <path d="M2.26587e+06,1.44454e+06L2.26587e+06,1.44737e+06L2.27126e+06,1.44737e+06L2.27537e+06,1.44595e+06L2.27126e+06,1.44454e+06L2.26587e+06,1.44454e+06Z" style="fill:rgb(167,61,0);fill-rule:nonzero;stroke:rgb(255,157,157);stroke-width:0.57px;"/>
        </g>
        <g transform="matrix(0.00414951,0,0,0.00414951,-9356.91,-5993.98)">
            <path d="M2.27679e+06,1.44454e+06L2.27679e+06,1.44737e+06L2.28217e+06,1.44737e+06L2.28628e+06,1.44595e+06L2.28217e+06,1.44454e+06L2.27679e+06,1.44454e+06Z" style="fill:rgb(167,61,0);fill-rule:nonzero;stroke:rgb(255,157,157);stroke-width:0.57px;"/>
        </g>
        <g transform="matrix(0.00414951,0,0,0.00414951,-9356.91,-5993.98)">
            <rect x="2.29493e+06" y="1.44638e+06" width="992.126" height="992.126" style="fill:rgb(167,61,0);stroke:rgb(255,157,157);stroke-width:0.57px;"/>
        </g>
        <g transform="matrix(0.00414951,0,0,0.00414951,-9356.91,-5993.98)">
            <rect x="2.29493e+06" y="1.44454e+06" width="992.126" height="992.126" style="fill:rgb(167,61,0);stroke:rgb(255,157,157);stroke-width:0.57px;"/>
        </g>
        <g transform="matrix(0.00414951,0,0,0.00414951,-9356.91,-5993.98)">
            <rect x="2.29677e+06" y="1.44638e+06" width="992.126" height="992.126" style="fill:rgb(167,61,0);stroke:rgb(255,157,157);stroke-width:0.57px;"/>
        </g>
        <g transform="matrix(0.00414951,0,0,0.00414951,-9356.91,-5993.98)">
            <rect x="2.29677e+06" y="1.44454e+06" width="992.126" height="992.126" style="fill:rgb(167,61,0);stroke:rgb(255,157,157);stroke-width:0.57px;"/>
        </g>
        <g transform="matrix(0.00414951,0,0,0.00414951,-9356.91,-5993.98)">
            <rect x="2.29068e+06" y="1.44574e+06" width="2834.65" height="425.197" style="fill:rgb(167,61,0);stroke:rgb(255,157,157);stroke-width:0.57px;"/>
        </g>
        <g transform="matrix(0.00414951,0,0,0.00414951,-9356.91,-5993.98)">
            <rect x="2.29188e+06" y="1.44454e+06" width="425.197" height="2834.65" style="fill:rgb(167,61,0);stroke:rgb(255,157,157);stroke-width:0.57px;"/>
        </g>
    </g>
    <g id="links" transform="matrix(1,0,0,1,359.383,5.78448)">
        <g transform="matrix(0.00414951,0,0,0.00414951,-2646.1,-5994.03)">
            <path d="M620646,1.44454e+06L616535,1.44595e+06L620646,1.44737e+06L626031,1.44737e+06L626031,1.44454e+06L620646,1.44454e+06Z" style="fill:rgb(167,61,0);fill-rule:nonzero;stroke:rgb(255,157,157);stroke-width:0.57px;"/>
        </g>
        <g transform="matrix(0.00414951,0,0,0.00414951,-2646.1,-5994.03)">
            <path d="M572910,1.44454e+06L572910,1.44737e+06L578296,1.44737e+06L582406,1.44595e+06L578296,1.44454e+06L572910,1.44454e+06Z" style="fill:rgb(167,61,0);fill-rule:nonzero;stroke:rgb(255,157,157);stroke-width:0.57px;"/>
        </g>
        <g transform="matrix(0.00414951,0,0,0.00414951,-2646.1,-5994.03)">
            <path d="M561997,1.44454e+06L561997,1.44737e+06L567383,1.44737e+06L571493,1.44595e+06L567383,1.44454e+06L561997,1.44454e+06Z" style="fill:rgb(167,61,0);fill-rule:nonzero;stroke:rgb(255,157,157);stroke-width:0.57px;"/>
        </g>
        <g transform="matrix(0.00414951,0,0,0.00414951,-2646.1,-5994.03)">
            <path d="M551083,1.44454e+06L551083,1.44737e+06L556469,1.44737e+06L560580,1.44595e+06L556469,1.44454e+06L551083,1.44454e+06Z" style="fill:rgb(167,61,0);fill-rule:nonzero;stroke:rgb(255,157,157);stroke-width:0.57px;"/>
        </g>
        <g transform="matrix(0.00414951,0,0,0.00414951,-2646.1,-5994.03)">
            <path d="M631559,1.44454e+06L627449,1.44595e+06L631559,1.44737e+06L636945,1.44737e+06L636945,1.44454e+06L631559,1.44454e+06Z" style="fill:rgb(167,61,0);fill-rule:nonzero;stroke:rgb(255,157,157);stroke-width:0.57px;"/>
        </g>
        <g transform="matrix(0.00414951,0,0,0.00414951,-2646.1,-5994.03)">
            <path d="M609732,1.44454e+06L605622,1.44595e+06L609732,1.44737e+06L615118,1.44737e+06L615118,1.44454e+06L609732,1.44454e+06Z" style="fill:rgb(167,61,0);fill-rule:nonzero;stroke:rgb(255,157,157);stroke-width:0.57px;"/>
        </g>
        <g transform="matrix(0.00414951,0,0,0.00414951,-2646.1,-5994.03)">
            <rect x="594142" y="1.44454e+06" width="992.126" height="992.126" style="fill:rgb(167,61,0);stroke:rgb(255,157,157);stroke-width:0.57px;"/>
        </g>
        <g transform="matrix(0.00414951,0,0,0.00414951,-2646.1,-5994.03)">
            <rect x="598394" y="1.44574e+06" width="2834.65" height="425.197" style="fill:rgb(167,61,0);stroke:rgb(255,157,157);stroke-width:0.57px;"/>
        </g>
        <g transform="matrix(0.00414951,0,0,0.00414951,-2646.1,-5994.03)">
            <rect x="594142" y="1.44638e+06" width="992.126" height="992.126" style="fill:rgb(167,61,0);stroke:rgb(255,157,157);stroke-width:0.57px;"/>
        </g>
        <g transform="matrix(0.00414951,0,0,0.00414951,-2646.1,-5994.03)">
            <rect x="599598" y="1.44454e+06" width="425.197" height="2834.65" style="fill:rgb(167,61,0);stroke:rgb(255,157,157);stroke-width:0.57px;"/>
        </g>
        <g transform="matrix(0.00414951,0,0,0.00414951,-2646.1,-5994.03)">
            <rect x="595984" y="1.44638e+06" width="992.126" height="992.126" style="fill:rgb(167,61,0);stroke:rgb(255,157,157);stroke-width:0.57px;"/>
        </g>
        <g transform="matrix(0.00414951,0,0,0.00414951,-2646.1,-5994.03)">
            <rect x="595984" y="1.44454e+06" width="992.126" height="992.126" style="fill:rgb(167,61,0);stroke:rgb(255,157,157);stroke-width:0.57px;"/>
        </g>
    </g>
    <g id="rechts1" serif:id="rechts" transform="matrix(1,0,0,1,375.532,-0.259601)">
        <g transform="matrix(0.00414951,0,0,0.00414951,-9356.22,-5988)">
            <path d="M2.25496e+06,1.44454e+06L2.25496e+06,1.44737e+06L2.26035e+06,1.44737e+06L2.26446e+06,1.44595e+06L2.26035e+06,1.44454e+06L2.25496e+06,1.44454e+06Z" style="fill:rgb(201,87,87);fill-rule:nonzero;stroke:rgb(255,157,157);stroke-width:0.57px;"/>
        </g>
        <g transform="matrix(0.00414951,0,0,0.00414951,-9356.22,-5988)">
            <path d="M2.26587e+06,1.44454e+06L2.26587e+06,1.44737e+06L2.27126e+06,1.44737e+06L2.27537e+06,1.44595e+06L2.27126e+06,1.44454e+06L2.26587e+06,1.44454e+06Z" style="fill:rgb(201,87,87);fill-rule:nonzero;stroke:rgb(255,157,157);stroke-width:0.57px;"/>
        </g>
        <g transform="matrix(0.00414951,0,0,0.00414951,-9356.22,-5988)">
            <path d="M2.27679e+06,1.44454e+06L2.27679e+06,1.44737e+06L2.28217e+06,1.44737e+06L2.28628e+06,1.44595e+06L2.28217e+06,1.44454e+06L2.27679e+06,1.44454e+06Z" style="fill:rgb(201,87,87);fill-rule:nonzero;stroke:rgb(255,157,157);stroke-width:0.57px;"/>
        </g>
        <g transform="matrix(0.00414951,0,0,0.00414951,-9356.22,-5988)">
            <path d="M2.33544e+06,1.44454e+06L2.33133e+06,1.44595e+06L2.33544e+06,1.44737e+06L2.34082e+06,1.44737e+06L2.34082e+06,1.44454e+06L2.33544e+06,1.44454e+06Z" style="fill:rgb(201,87,87);fill-rule:nonzero;stroke:rgb(255,157,157);stroke-width:0.57px;"/>
        </g>
        <g transform="matrix(0.00414951,0,0,0.00414951,-9356.22,-5988)">
            <path d="M2.32452e+06,1.44454e+06L2.32041e+06,1.44595e+06L2.32452e+06,1.44737e+06L2.32991e+06,1.44737e+06L2.32991e+06,1.44454e+06L2.32452e+06,1.44454e+06Z" style="fill:rgb(201,87,87);fill-rule:nonzero;stroke:rgb(255,157,157);stroke-width:0.57px;"/>
        </g>
        <g transform="matrix(0.00414951,0,0,0.00414951,-9356.22,-5988)">
            <path d="M2.31361e+06,1.44454e+06L2.3095e+06,1.44595e+06L2.31361e+06,1.44737e+06L2.319e+06,1.44737e+06L2.319e+06,1.44454e+06L2.31361e+06,1.44454e+06Z" style="fill:rgb(201,87,87);fill-rule:nonzero;stroke:rgb(255,157,157);stroke-width:0.57px;"/>
        </g>
        <g transform="matrix(0.00414951,0,0,0.00414951,-9356.22,-5988)">
            <path d="M2.33544e+06,1.44454e+06L2.33133e+06,1.44595e+06L2.33544e+06,1.44737e+06L2.34082e+06,1.44737e+06L2.34082e+06,1.44454e+06L2.33544e+06,1.44454e+06Z" style="fill:rgb(201,87,87);fill-rule:nonzero;stroke:rgb(255,157,157);stroke-width:0.57px;"/>
        </g>
        <g transform="matrix(0.00414951,0,0,0.00414951,-9356.22,-5988)">
            <path d="M2.32452e+06,1.44454e+06L2.32041e+06,1.44595e+06L2.32452e+06,1.44737e+06L2.32991e+06,1.44737e+06L2.32991e+06,1.44454e+06L2.32452e+06,1.44454e+06Z" style="fill:rgb(201,87,87);fill-rule:nonzero;stroke:rgb(255,157,157);stroke-width:0.57px;"/>
        </g>
        <g transform="matrix(0.00414951,0,0,0.00414951,-9356.22,-5988)">
            <path d="M2.31361e+06,1.44454e+06L2.3095e+06,1.44595e+06L2.31361e+06,1.44737e+06L2.319e+06,1.44737e+06L2.319e+06,1.44454e+06L2.31361e+06,1.44454e+06Z" style="fill:rgb(201,87,87);fill-rule:nonzero;stroke:rgb(255,157,157);stroke-width:0.57px;"/>
        </g>
        <g transform="matrix(0.00414951,0,0,0.00414951,-9356.22,-5988)">
            <path d="M2.29805e+06,1.44312e+06L2.29805e+06,1.44879e+06L2.30343e+06,1.44879e+06L2.30343e+06,1.44312e+06L2.30202e+06,1.44312e+06L2.30202e+06,1.44737e+06L2.30102e+06,1.44737e+06L2.30102e+06,1.44638e+06L2.30202e+06,1.44638e+06L2.30202e+06,1.44553e+06L2.30102e+06,1.44553e+06L2.30102e+06,1.44454e+06L2.30202e+06,1.44454e+06L2.30202e+06,1.44312e+06L2.30017e+06,1.44312e+06L2.30017e+06,1.44737e+06L2.29918e+06,1.44737e+06L2.29918e+06,1.44638e+06L2.30017e+06,1.44638e+06L2.30017e+06,1.44553e+06L2.29918e+06,1.44553e+06L2.29918e+06,1.44454e+06L2.30017e+06,1.44454e+06L2.30017e+06,1.44312e+06L2.29805e+06,1.44312e+06Z" style="fill:rgb(201,87,87);fill-rule:nonzero;stroke:rgb(255,157,157);stroke-width:0.57px;"/>
        </g>
        <g transform="matrix(0.00414951,0,0,0.00414951,-9356.22,-5988)">
            <rect x="2.29493e+06" y="1.44567e+06" width="2834.65" height="566.929" style="fill:rgb(201,87,87);stroke:rgb(255,157,157);stroke-width:0.57px;"/>
        </g>
        <g transform="matrix(0.00414951,0,0,0.00414951,-9356.22,-5988)">
            <rect x="2.29521e+06" y="1.44586e+06" width="2267.72" height="188.957" style="fill:rgb(201,87,87);stroke:rgb(255,157,157);stroke-width:0.57px;"/>
        </g>
        <g transform="matrix(0.00414951,0,0,0.00414951,-9356.22,-5988)">
            <rect x="2.29606e+06" y="1.44454e+06" width="566.929" height="2834.65" style="fill:rgb(201,87,87);stroke:rgb(255,157,157);stroke-width:0.57px;"/>
        </g>
        <g transform="matrix(0.00414951,0,0,0.00414951,-9356.22,-5988)">
            <rect x="2.29625e+06" y="1.44468e+06" width="188.957" height="2551.18" style="fill:rgb(201,87,87);stroke:rgb(255,157,157);stroke-width:0.57px;"/>
        </g>
    </g>
    <g id="links1" serif:id="links" transform="matrix(1,0,0,1,375.539,-0.252173)">
        <g transform="matrix(0.00414951,0,0,0.00414951,-2662.25,-5988)">
            <path d="M588472,1.44312e+06L588472,1.44879e+06L593858,1.44879e+06L593858,1.44312e+06L591732,1.44312e+06L591732,1.44454e+06L592724,1.44454e+06L592724,1.44553e+06L591732,1.44553e+06L591732,1.44638e+06L592724,1.44638e+06L592724,1.44737e+06L591732,1.44737e+06L591732,1.44312e+06L589890,1.44312e+06L589890,1.44454e+06L590882,1.44454e+06L590882,1.44553e+06L589890,1.44553e+06L589890,1.44638e+06L590882,1.44638e+06L590882,1.44737e+06L589890,1.44737e+06L589890,1.44312e+06L588472,1.44312e+06Z" style="fill:rgb(201,87,87);fill-rule:nonzero;stroke:rgb(255,157,157);stroke-width:0.57px;"/>
        </g>
        <g transform="matrix(0.00414951,0,0,0.00414951,-2662.25,-5988)">
            <path d="M551083,1.44454e+06L551083,1.44737e+06L556469,1.44737e+06L560580,1.44595e+06L556469,1.44454e+06L551083,1.44454e+06Z" style="fill:rgb(201,87,87);fill-rule:nonzero;stroke:rgb(255,157,157);stroke-width:0.57px;"/>
        </g>
        <g transform="matrix(0.00414951,0,0,0.00414951,-2662.25,-5988)">
            <path d="M561997,1.44454e+06L561997,1.44737e+06L567383,1.44737e+06L571493,1.44595e+06L567383,1.44454e+06L561997,1.44454e+06Z" style="fill:rgb(201,87,87);fill-rule:nonzero;stroke:rgb(255,157,157);stroke-width:0.57px;"/>
        </g>
        <g transform="matrix(0.00414951,0,0,0.00414951,-2662.25,-5988)">
            <path d="M572910,1.44454e+06L572910,1.44737e+06L578296,1.44737e+06L582406,1.44595e+06L578296,1.44454e+06L572910,1.44454e+06Z" style="fill:rgb(201,87,87);fill-rule:nonzero;stroke:rgb(255,157,157);stroke-width:0.57px;"/>
        </g>
        <g transform="matrix(0.00414951,0,0,0.00414951,-2662.25,-5988)">
            <path d="M631559,1.44454e+06L627449,1.44595e+06L631559,1.44737e+06L636945,1.44737e+06L636945,1.44454e+06L631559,1.44454e+06Z" style="fill:rgb(201,87,87);fill-rule:nonzero;stroke:rgb(255,157,157);stroke-width:0.57px;"/>
        </g>
        <g transform="matrix(0.00414951,0,0,0.00414951,-2662.25,-5988)">
            <path d="M620646,1.44454e+06L616535,1.44595e+06L620646,1.44737e+06L626031,1.44737e+06L626031,1.44454e+06L620646,1.44454e+06Z" style="fill:rgb(201,87,87);fill-rule:nonzero;stroke:rgb(255,157,157);stroke-width:0.57px;"/>
        </g>
        <g transform="matrix(0.00414951,0,0,0.00414951,-2662.25,-5988)">
            <path d="M609732,1.44454e+06L605622,1.44595e+06L609732,1.44737e+06L615118,1.44737e+06L615118,1.44454e+06L609732,1.44454e+06Z" style="fill:rgb(201,87,87);fill-rule:nonzero;stroke:rgb(255,157,157);stroke-width:0.57px;"/>
        </g>
        <g transform="matrix(0.00414951,0,0,0.00414951,-2662.25,-5988)">
            <rect x="595465" y="1.44468e+06" width="188.957" height="2551.18" style="fill:rgb(201,87,87);stroke:rgb(255,157,157);stroke-width:0.57px;"/>
        </g>
        <g transform="matrix(0.00414951,0,0,0.00414951,-2662.25,-5988)">
            <rect x="594425" y="1.44586e+06" width="2267.72" height="188.957" style="fill:rgb(201,87,87);stroke:rgb(255,157,157);stroke-width:0.57px;"/>
        </g>
        <g transform="matrix(0.00414951,0,0,0.00414951,-2662.25,-5988)">
            <rect x="595276" y="1.44454e+06" width="566.929" height="2834.65" style="fill:rgb(201,87,87);stroke:rgb(255,157,157);stroke-width:0.57px;"/>
        </g>
        <g transform="matrix(0.00414951,0,0,0.00414951,-2662.25,-5988)">
            <rect x="594142" y="1.44567e+06" width="2834.65" height="566.929" style="fill:rgb(201,87,87);stroke:rgb(255,157,157);stroke-width:0.57px;"/>
        </g>
    </g>
    <g id="wafer-rechts" serif:id="wafer rechts" transform="matrix(1,0,0,1,386.281,5.89417)">
        <g opacity="0.45">
            <g transform="matrix(0.00414951,0,0,0.00414951,-9366.96,-5994.15)">
                <path d="M2.33544e+06,1.44454e+06L2.33133e+06,1.44595e+06L2.33544e+06,1.44737e+06L2.34082e+06,1.44737e+06L2.34082e+06,1.44454e+06L2.33544e+06,1.44454e+06Z" style="fill:rgb(255,76,39);fill-rule:nonzero;stroke:rgb(255,157,157);stroke-width:0.57px;"/>
            </g>
            <g transform="matrix(0.00414951,0,0,0.00414951,-9366.96,-5994.15)">
                <path d="M2.32452e+06,1.44454e+06L2.32041e+06,1.44595e+06L2.32452e+06,1.44737e+06L2.32991e+06,1.44737e+06L2.32991e+06,1.44454e+06L2.32452e+06,1.44454e+06Z" style="fill:rgb(255,76,39);fill-rule:nonzero;stroke:rgb(255,157,157);stroke-width:0.57px;"/>
            </g>
            <g transform="matrix(0.00414951,0,0,0.00414951,-9366.96,-5994.15)">
                <path d="M2.31361e+06,1.44454e+06L2.3095e+06,1.44595e+06L2.31361e+06,1.44737e+06L2.319e+06,1.44737e+06L2.319e+06,1.44454e+06L2.31361e+06,1.44454e+06Z" style="fill:rgb(255,76,39);fill-rule:nonzero;stroke:rgb(255,157,157);stroke-width:0.57px;"/>
            </g>
            <g transform="matrix(0.00414951,0,0,0.00414951,-9366.96,-5994.15)">
                <path d="M2.25496e+06,1.44454e+06L2.25496e+06,1.44737e+06L2.26035e+06,1.44737e+06L2.26446e+06,1.44595e+06L2.26035e+06,1.44454e+06L2.25496e+06,1.44454e+06Z" style="fill:rgb(255,76,39);fill-rule:nonzero;stroke:rgb(255,157,157);stroke-width:0.57px;"/>
            </g>
            <g transform="matrix(0.00414951,0,0,0.00414951,-9366.96,-5994.15)">
                <path d="M2.26587e+06,1.44454e+06L2.26587e+06,1.44737e+06L2.27126e+06,1.44737e+06L2.27537e+06,1.44595e+06L2.27126e+06,1.44454e+06L2.26587e+06,1.44454e+06Z" style="fill:rgb(255,76,39);fill-rule:nonzero;stroke:rgb(255,157,157);stroke-width:0.57px;"/>
            </g>
            <g transform="matrix(0.00414951,0,0,0.00414951,-9366.96,-5994.15)">
                <path d="M2.27679e+06,1.44454e+06L2.27679e+06,1.44737e+06L2.28217e+06,1.44737e+06L2.28628e+06,1.44595e+06L2.28217e+06,1.44454e+06L2.27679e+06,1.44454e+06Z" style="fill:rgb(255,76,39);fill-rule:nonzero;stroke:rgb(255,157,157);stroke-width:0.57px;"/>
            </g>
            <g transform="matrix(0.00414951,0,0,0.00414951,-9366.96,-5994.15)">
                <rect x="2.30051e+06" y="1.44468e+06" width="170.079" height="2551.18" style="fill:rgb(255,76,39);stroke:rgb(255,157,157);stroke-width:0.57px;"/>
            </g>
            <g transform="matrix(0.00414951,0,0,0.00414951,-9366.96,-5994.15)">
                <rect x="2.29932e+06" y="1.44587e+06" width="2551.18" height="170.079" style="fill:rgb(255,76,39);stroke:rgb(255,157,157);stroke-width:0.57px;"/>
            </g>
            <g transform="matrix(0.00414951,0,0,0.00414951,-9366.96,-5994.15)">
                <rect x="2.30034e+06" y="1.44454e+06" width="510.236" height="2834.65" style="fill:rgb(255,76,39);stroke:rgb(255,157,157);stroke-width:0.57px;"/>
            </g>
            <g transform="matrix(0.00414951,0,0,0.00414951,-9366.96,-5994.15)">
                <rect x="2.29918e+06" y="1.4457e+06" width="2834.65" height="510.236" style="fill:rgb(255,76,39);stroke:rgb(255,157,157);stroke-width:0.57px;"/>
            </g>
        </g>
    </g>
    <g id="wafer-links" serif:id="wafer links" transform="matrix(1,0,0,1,0.000456697,5.89417)">
        <g opacity="0.45">
            <g transform="matrix(0.00414951,0,0,0.00414951,-2286.72,-5994.14)">
                <path d="M631559,1.44454e+06L627449,1.44595e+06L631559,1.44737e+06L636945,1.44737e+06L636945,1.44454e+06L631559,1.44454e+06Z" style="fill:rgb(255,76,39);fill-rule:nonzero;stroke:rgb(255,157,157);stroke-width:0.57px;"/>
            </g>
            <g transform="matrix(0.00414951,0,0,0.00414951,-2286.72,-5994.13)">
                <path d="M620646,1.44454e+06L616535,1.44595e+06L620646,1.44737e+06L626031,1.44737e+06L626031,1.44454e+06L620646,1.44454e+06Z" style="fill:rgb(255,76,39);fill-rule:nonzero;stroke:rgb(255,157,157);stroke-width:0.57px;"/>
            </g>
            <g transform="matrix(0.00414951,0,0,0.00414951,-2286.72,-5994.13)">
                <path d="M609732,1.44454e+06L605622,1.44595e+06L609732,1.44737e+06L615118,1.44737e+06L615118,1.44454e+06L609732,1.44454e+06Z" style="fill:rgb(255,76,39);fill-rule:nonzero;stroke:rgb(255,157,157);stroke-width:0.57px;"/>
            </g>
            <g transform="matrix(0.00414951,0,0,0.00414951,-2286.72,-5994.13)">
                <path d="M551083,1.44454e+06L551083,1.44737e+06L556469,1.44737e+06L560580,1.44595e+06L556469,1.44454e+06L551083,1.44454e+06Z" style="fill:rgb(255,76,39);fill-rule:nonzero;stroke:rgb(255,157,157);stroke-width:0.57px;"/>
            </g>
            <g transform="matrix(0.00414951,0,0,0.00414951,-2286.72,-5994.13)">
                <path d="M561997,1.44454e+06L561997,1.44737e+06L567383,1.44737e+06L571493,1.44595e+06L567383,1.44454e+06L561997,1.44454e+06Z" style="fill:rgb(255,76,39);fill-rule:nonzero;stroke:rgb(255,157,157);stroke-width:0.57px;"/>
            </g>
            <g transform="matrix(0.00414951,0,0,0.00414951,-2286.72,-5994.13)">
                <path d="M572910,1.44454e+06L572910,1.44737e+06L578296,1.44737e+06L582406,1.44595e+06L578296,1.44454e+06L572910,1.44454e+06Z" style="fill:rgb(255,76,39);fill-rule:nonzero;stroke:rgb(255,157,157);stroke-width:0.57px;"/>
            </g>
            <g transform="matrix(0.00414951,0,0,0.00414951,-2286.72,-5994.13)">
                <rect x="591052" y="1.44454e+06" width="510.236" height="2834.65" style="fill:rgb(255,76,39);stroke:rgb(255,157,157);stroke-width:0.57px;"/>
            </g>
            <g transform="matrix(0.00414951,0,0,0.00414951,-2286.72,-5994.13)">
                <rect x="589890" y="1.4457e+06" width="2834.65" height="510.236" style="fill:rgb(255,76,39);stroke:rgb(255,157,157);stroke-width:0.57px;"/>
            </g>
            <g transform="matrix(0.00414951,0,0,0.00414951,-2286.72,-5994.13)">
                <rect x="591222" y="1.44468e+06" width="170.079" height="2551.18" style="fill:rgb(255,76,39);stroke:rgb(255,157,157);stroke-width:0.57px;"/>
            </g>
            <g transform="matrix(0.00414951,0,0,0.00414951,-2286.72,-5994.13)">
                <rect x="590031" y="1.44587e+06" width="2551.18" height="170.079" style="fill:rgb(255,76,39);stroke:rgb(255,157,157);stroke-width:0.57px;"/>
            </g>
        </g>
    </g>
    <g transform="matrix(0.00415033,0,0,0.00415033,-8982.56,-5989.45)">
        <g id="rechts2" serif:id="rechts">
            <path d="M2.29805e+06,1.44312e+06L2.29805e+06,1.44879e+06L2.30343e+06,1.44879e+06L2.30343e+06,1.44312e+06L2.30202e+06,1.44312e+06L2.30202e+06,1.44737e+06L2.30102e+06,1.44737e+06L2.30102e+06,1.44638e+06L2.30202e+06,1.44638e+06L2.30202e+06,1.44553e+06L2.30102e+06,1.44553e+06L2.30102e+06,1.44454e+06L2.30202e+06,1.44454e+06L2.30202e+06,1.44312e+06L2.30017e+06,1.44312e+06L2.30017e+06,1.44737e+06L2.29918e+06,1.44737e+06L2.29918e+06,1.44638e+06L2.30017e+06,1.44638e+06L2.30017e+06,1.44553e+06L2.29918e+06,1.44553e+06L2.29918e+06,1.44454e+06L2.30017e+06,1.44454e+06L2.30017e+06,1.44312e+06L2.29805e+06,1.44312e+06Z" style="fill:rgb(205,203,203);fill-rule:nonzero;stroke:rgb(192,128,255);stroke-width:0.57px;"/>
        </g>
    </g>
    <g transform="matrix(0.00415033,0,0,0.00415033,-2287.23,-5989.44)">
        <g id="links2" serif:id="links">
            <path d="M588472,1.44312e+06L588472,1.44879e+06L593858,1.44879e+06L593858,1.44312e+06L591732,1.44312e+06L591732,1.44454e+06L592724,1.44454e+06L592724,1.44553e+06L591732,1.44553e+06L591732,1.44638e+06L592724,1.44638e+06L592724,1.44737e+06L591732,1.44737e+06L591732,1.44312e+06L589890,1.44312e+06L589890,1.44454e+06L590882,1.44454e+06L590882,1.44553e+06L589890,1.44553e+06L589890,1.44638e+06L590882,1.44638e+06L590882,1.44737e+06L589890,1.44737e+06L589890,1.44312e+06L588472,1.44312e+06Z" style="fill:rgb(205,203,203);fill-rule:nonzero;stroke:rgb(192,128,255);stroke-width:0.57px;"/>
        </g>
    </g>
</svg>
