<?xml version="1.0" encoding="UTF-8" standalone="no"?><!DOCTYPE svg PUBLIC "-//W3C//DTD SVG 1.1//EN" "http://www.w3.org/Graphics/SVG/1.1/DTD/svg11.dtd"><svg width="100%" height="100%" viewBox="0 0 550 18" version="1.1" xmlns="http://www.w3.org/2000/svg" xmlns:xlink="http://www.w3.org/1999/xlink" xml:space="preserve" xmlns:serif="http://www.serif.com/" style="fill-rule:evenodd;clip-rule:evenodd;"><g id="rechts"><path d="M498.699,4.416l-12.791,4.388l12.791,4.419l16.774,0l0,-8.807l-16.774,-0Z" style="fill:#cdcbcb;fill-rule:nonzero;"/><path d="M532.683,4.416l-12.791,4.388l12.791,4.419l16.744,0l-0,-8.807l-16.744,-0Z" style="fill:#cdcbcb;fill-rule:nonzero;"/><path d="M464.745,4.416l-12.79,4.388l12.79,4.419l16.775,0l-0,-8.807l-16.775,-0Z" style="fill:#cdcbcb;fill-rule:nonzero;"/><path d="M282.219,4.416l-0,8.807l16.774,0l12.791,-4.419l-12.791,-4.388l-16.774,-0Z" style="fill:#cdcbcb;fill-rule:nonzero;"/><path d="M316.172,4.416l0,8.807l16.775,0l12.791,-4.419l-12.791,-4.388l-16.775,-0Z" style="fill:#cdcbcb;fill-rule:nonzero;"/><path d="M350.157,4.416l-0,8.807l16.743,0l12.791,-4.419l-12.791,-4.388l-16.743,-0Z" style="fill:#cdcbcb;fill-rule:nonzero;"/><rect x="406.611" y="10.142" width="3.088" height="3.088" style="fill:#cdcbcb;"/><rect x="406.611" y="4.416" width="3.088" height="3.088" style="fill:#cdcbcb;"/><rect x="412.337" y="10.142" width="3.088" height="3.088" style="fill:#cdcbcb;"/><rect x="412.337" y="4.416" width="3.088" height="3.088" style="fill:#cdcbcb;"/><rect x="393.384" y="8.15" width="8.822" height="1.323" style="fill:#cdcbcb;"/><rect x="397.119" y="4.416" width="1.323" height="8.822" style="fill:#cdcbcb;"/></g><g id="links"><path d="M216.494,4.416l-12.794,4.388l12.794,4.419l16.759,0l0,-8.807l-16.759,-0Z" style="fill:#cdcbcb;fill-rule:nonzero;"/><path d="M67.934,4.416l-0,8.807l16.761,0l12.791,-4.419l-12.791,-4.388l-16.761,-0Z" style="fill:#cdcbcb;fill-rule:nonzero;"/><path d="M33.971,4.416l-0,8.807l16.762,0l12.791,-4.419l-12.791,-4.388l-16.762,-0Z" style="fill:#cdcbcb;fill-rule:nonzero;"/><path d="M0.005,4.416l-0,8.807l16.762,0l12.794,-4.419l-12.794,-4.388l-16.762,-0Z" style="fill:#cdcbcb;fill-rule:nonzero;"/><path d="M250.457,4.416l-12.791,4.388l12.791,4.419l16.762,0l-0,-8.807l-16.762,-0Z" style="fill:#cdcbcb;fill-rule:nonzero;"/><path d="M182.528,4.416l-12.79,4.388l12.79,4.419l16.762,0l0,-8.807l-16.762,-0Z" style="fill:#cdcbcb;fill-rule:nonzero;"/><rect x="134.01" y="4.416" width="3.088" height="3.088" style="fill:#cdcbcb;"/><rect x="147.243" y="8.15" width="8.822" height="1.323" style="fill:#cdcbcb;"/><rect x="134.01" y="10.142" width="3.088" height="3.088" style="fill:#cdcbcb;"/><rect x="150.99" y="4.416" width="1.323" height="8.822" style="fill:#cdcbcb;"/><rect x="139.743" y="10.142" width="3.088" height="3.088" style="fill:#cdcbcb;"/><rect x="139.743" y="4.416" width="3.088" height="3.088" style="fill:#cdcbcb;"/></g><g id="rechts1" serif:id="rechts"><path d="M282.223,4.423l-0,8.807l16.774,0l12.791,-4.419l-12.791,-4.388l-16.774,0Z" style="fill:#c95757;fill-rule:nonzero;"/><path d="M316.176,4.423l-0,8.807l16.774,0l12.791,-4.419l-12.791,-4.388l-16.774,0Z" style="fill:#c95757;fill-rule:nonzero;"/><path d="M350.16,4.423l0,8.807l16.744,0l12.791,-4.419l-12.791,-4.388l-16.744,0Z" style="fill:#c95757;fill-rule:nonzero;"/><path d="M532.687,4.423l-12.791,4.388l12.791,4.419l16.743,0l0,-8.807l-16.743,0Z" style="fill:#c95757;fill-rule:nonzero;"/><path d="M498.703,4.423l-12.791,4.388l12.791,4.419l16.774,0l-0,-8.807l-16.774,0Z" style="fill:#c95757;fill-rule:nonzero;"/><path d="M464.749,4.423l-12.791,4.388l12.791,4.419l16.775,0l-0,-8.807l-16.775,0Z" style="fill:#c95757;fill-rule:nonzero;"/><path d="M532.687,4.423l-12.791,4.388l12.791,4.419l16.743,0l0,-8.807l-16.743,0Z" style="fill:#c95757;fill-rule:nonzero;"/><path d="M498.703,4.423l-12.791,4.388l12.791,4.419l16.774,0l-0,-8.807l-16.774,0Z" style="fill:#c95757;fill-rule:nonzero;"/><path d="M464.749,4.423l-12.791,4.388l12.791,4.419l16.775,0l-0,-8.807l-16.775,0Z" style="fill:#c95757;fill-rule:nonzero;"/><path d="M416.324,0.004l0,17.646l16.744,-0l-0,-17.646l-4.388,-0l-0,13.226l-3.113,0l0,-3.081l3.113,0l-0,-2.645l-3.113,0l0,-3.081l3.113,0l-0,-4.419l-5.758,-0l0,13.226l-3.081,0l0,-3.081l3.081,0l0,-2.645l-3.081,0l0,-3.081l3.081,0l0,-4.419l-6.598,-0Z" style="fill:#c95757;fill-rule:nonzero;"/><rect x="406.615" y="7.94" width="8.822" height="1.764" style="fill:#c95757;"/><rect x="407.486" y="8.531" width="7.057" height="0.588" style="fill:#c95757;"/><rect x="410.131" y="4.423" width="1.764" height="8.822" style="fill:#c95757;"/><rect x="410.723" y="4.859" width="0.588" height="7.94" style="fill:#c95757;"/></g><g id="links1" serif:id="links"><path d="M116.367,0.004l-0,17.645l16.762,0l-0,-17.645l-6.617,-0l0,4.419l3.088,-0l-0,3.081l-3.088,-0l0,2.645l3.088,0l-0,3.081l-3.088,0l0,-13.226l-5.732,-0l-0,4.419l3.087,-0l0,3.081l-3.087,-0l-0,2.645l3.087,0l0,3.081l-3.087,0l-0,-13.226l-4.413,-0Z" style="fill:#c95757;fill-rule:nonzero;"/><path d="M0.007,4.423l0,8.807l16.762,0l12.794,-4.419l-12.794,-4.388l-16.762,-0Z" style="fill:#c95757;fill-rule:nonzero;"/><path d="M33.973,4.423l0,8.807l16.762,0l12.791,-4.419l-12.791,-4.388l-16.762,-0Z" style="fill:#c95757;fill-rule:nonzero;"/><path d="M67.936,4.423l-0,8.807l16.762,0l12.791,-4.419l-12.791,-4.388l-16.762,-0Z" style="fill:#c95757;fill-rule:nonzero;"/><path d="M250.459,4.423l-12.791,4.388l12.791,4.419l16.762,0l0,-8.807l-16.762,-0Z" style="fill:#c95757;fill-rule:nonzero;"/><path d="M216.497,4.423l-12.794,4.388l12.794,4.419l16.758,0l0,-8.807l-16.758,-0Z" style="fill:#c95757;fill-rule:nonzero;"/><path d="M182.531,4.423l-12.791,4.388l12.791,4.419l16.762,0l-0,-8.807l-16.762,-0Z" style="fill:#c95757;fill-rule:nonzero;"/><rect x="138.13" y="4.859" width="0.588" height="7.94" style="fill:#c95757;"/><rect x="134.893" y="8.531" width="7.057" height="0.588" style="fill:#c95757;"/><rect x="137.542" y="4.423" width="1.764" height="8.822" style="fill:#c95757;"/><rect x="134.013" y="7.94" width="8.822" height="1.764" style="fill:#c95757;"/></g><g id="wafer-rechts" serif:id="wafer rechts" opacity="0.45"><g><path d="M532.687,4.409l-12.791,4.388l12.791,4.419l16.743,-0l0,-8.807l-16.743,-0Z" style="fill:#ff4c27;fill-rule:nonzero;"/></g><g><path d="M498.703,4.409l-12.791,4.388l12.791,4.419l16.774,-0l-0,-8.807l-16.774,-0Z" style="fill:#ff4c27;fill-rule:nonzero;"/></g><g><path d="M464.749,4.409l-12.791,4.388l12.791,4.419l16.775,-0l-0,-8.807l-16.775,-0Z" style="fill:#ff4c27;fill-rule:nonzero;"/></g><g><path d="M282.223,4.409l-0,8.807l16.774,-0l12.791,-4.419l-12.791,-4.388l-16.774,-0Z" style="fill:#ff4c27;fill-rule:nonzero;"/></g><g><path d="M316.176,4.409l-0,8.807l16.774,-0l12.791,-4.419l-12.791,-4.388l-16.774,-0Z" style="fill:#ff4c27;fill-rule:nonzero;"/></g><g><path d="M350.16,4.409l0,8.807l16.744,-0l12.791,-4.419l-12.791,-4.388l-16.744,-0Z" style="fill:#ff4c27;fill-rule:nonzero;"/></g><g><rect x="423.98" y="4.844" width="0.529" height="7.94" style="fill:#ff4c27;"/></g><g><rect x="420.277" y="8.548" width="7.94" height="0.529" style="fill:#ff4c27;"/></g><g><rect x="423.451" y="4.409" width="1.588" height="8.822" style="fill:#ff4c27;"/></g><g><rect x="419.841" y="8.019" width="8.822" height="1.588" style="fill:#ff4c27;"/></g></g><g id="wafer-links" serif:id="wafer links" opacity="0.45"><g><path d="M250.456,4.423l-12.791,4.388l12.791,4.419l16.762,0l-0,-8.807l-16.762,0Z" style="fill:#ff4c27;fill-rule:nonzero;"/></g><g><path d="M216.493,4.423l-12.794,4.388l12.794,4.419l16.759,0l-0,-8.807l-16.759,0Z" style="fill:#ff4c27;fill-rule:nonzero;"/></g><g><path d="M182.527,4.423l-12.791,4.388l12.791,4.419l16.762,0l0,-8.807l-16.762,0Z" style="fill:#ff4c27;fill-rule:nonzero;"/></g><g><path d="M0.004,4.423l-0,8.807l16.762,0l12.794,-4.419l-12.794,-4.388l-16.762,0Z" style="fill:#ff4c27;fill-rule:nonzero;"/></g><g><path d="M33.969,4.423l0,8.807l16.762,0l12.791,-4.419l-12.791,-4.388l-16.762,0Z" style="fill:#ff4c27;fill-rule:nonzero;"/></g><g><path d="M67.932,4.423l0,8.807l16.762,0l12.791,-4.419l-12.791,-4.388l-16.762,0Z" style="fill:#ff4c27;fill-rule:nonzero;"/></g><g><rect x="124.392" y="4.423" width="1.588" height="8.822" style="fill:#ff4c27;"/></g><g><rect x="120.776" y="8.033" width="8.822" height="1.588" style="fill:#ff4c27;"/></g><g><rect x="124.922" y="4.859" width="0.529" height="7.94" style="fill:#ff4c27;"/></g><g><rect x="121.215" y="8.562" width="7.94" height="0.529" style="fill:#ff4c27;"/></g></g></svg>