<?xml version="1.0" encoding="UTF-8" standalone="no"?>
<!DOCTYPE svg PUBLIC "-//W3C//DTD SVG 1.1//EN" "http://www.w3.org/Graphics/SVG/1.1/DTD/svg11.dtd">
<svg width="100%" height="100%" viewBox="0 0 743 12" version="1.1" xmlns="http://www.w3.org/2000/svg" xmlns:xlink="http://www.w3.org/1999/xlink" xml:space="preserve" xmlns:serif="http://www.serif.com/" style="fill-rule:evenodd;clip-rule:evenodd;">
    <rect x="0" y="0.005" width="742.567" height="11.767" style="fill:white;"/>
    <g id="rechts" transform="matrix(1,0,0,1,386.285,3.2685e-13)">
        <g transform="matrix(0.00414951,0,0,0.00414951,-9356.97,-5994.13)">
            <path d="M2.33544e+06,1.44454e+06L2.33133e+06,1.44595e+06L2.33544e+06,1.44737e+06L2.34082e+06,1.44737e+06L2.34082e+06,1.44454e+06L2.33544e+06,1.44454e+06Z" style="fill:rgb(205,203,203);fill-rule:nonzero;stroke:rgb(255,157,157);stroke-width:0.57px;"/>
        </g>
        <g transform="matrix(0.00414951,0,0,0.00414951,-9356.97,-5994.13)">
            <path d="M2.32452e+06,1.44454e+06L2.32041e+06,1.44595e+06L2.32452e+06,1.44737e+06L2.32991e+06,1.44737e+06L2.32991e+06,1.44454e+06L2.32452e+06,1.44454e+06Z" style="fill:rgb(205,203,203);fill-rule:nonzero;stroke:rgb(255,157,157);stroke-width:0.57px;"/>
        </g>
        <g transform="matrix(0.00414951,0,0,0.00414951,-9356.97,-5994.13)">
            <path d="M2.31361e+06,1.44454e+06L2.3095e+06,1.44595e+06L2.31361e+06,1.44737e+06L2.319e+06,1.44737e+06L2.319e+06,1.44454e+06L2.31361e+06,1.44454e+06Z" style="fill:rgb(205,203,203);fill-rule:nonzero;stroke:rgb(255,157,157);stroke-width:0.57px;"/>
        </g>
        <g transform="matrix(0.00414951,0,0,0.00414951,-9356.97,-5994.13)">
            <path d="M2.25496e+06,1.44454e+06L2.25496e+06,1.44737e+06L2.26035e+06,1.44737e+06L2.26446e+06,1.44595e+06L2.26035e+06,1.44454e+06L2.25496e+06,1.44454e+06Z" style="fill:rgb(205,203,203);fill-rule:nonzero;stroke:rgb(255,157,157);stroke-width:0.57px;"/>
        </g>
        <g transform="matrix(0.00414951,0,0,0.00414951,-9356.97,-5994.13)">
            <path d="M2.26587e+06,1.44454e+06L2.26587e+06,1.44737e+06L2.27126e+06,1.44737e+06L2.27537e+06,1.44595e+06L2.27126e+06,1.44454e+06L2.26587e+06,1.44454e+06Z" style="fill:rgb(205,203,203);fill-rule:nonzero;stroke:rgb(255,157,157);stroke-width:0.57px;"/>
        </g>
        <g transform="matrix(0.00414951,0,0,0.00414951,-9356.97,-5994.13)">
            <path d="M2.27679e+06,1.44454e+06L2.27679e+06,1.44737e+06L2.28217e+06,1.44737e+06L2.28628e+06,1.44595e+06L2.28217e+06,1.44454e+06L2.27679e+06,1.44454e+06Z" style="fill:rgb(205,203,203);fill-rule:nonzero;stroke:rgb(255,157,157);stroke-width:0.57px;"/>
        </g>
        <g transform="matrix(0.00414951,0,0,0.00414951,-9356.97,-5994.13)">
            <rect x="2.30051e+06" y="1.44468e+06" width="170.079" height="2551.18" style="fill:rgb(205,203,203);stroke:rgb(255,157,157);stroke-width:0.57px;"/>
        </g>
        <g transform="matrix(0.00414951,0,0,0.00414951,-9356.97,-5994.13)">
            <rect x="2.29932e+06" y="1.44587e+06" width="2551.18" height="170.079" style="fill:rgb(205,203,203);stroke:rgb(255,157,157);stroke-width:0.57px;"/>
        </g>
        <g transform="matrix(0.00414951,0,0,0.00414951,-9356.97,-5994.13)">
            <rect x="2.30034e+06" y="1.44454e+06" width="510.236" height="2834.65" style="fill:rgb(205,203,203);stroke:rgb(255,157,157);stroke-width:0.57px;"/>
        </g>
        <g transform="matrix(0.00414951,0,0,0.00414951,-9356.97,-5994.13)">
            <rect x="2.29918e+06" y="1.4457e+06" width="2834.65" height="510.236" style="fill:rgb(205,203,203);stroke:rgb(255,157,157);stroke-width:0.57px;"/>
        </g>
    </g>
    <g id="links" transform="matrix(1,0,0,1,0.00414951,-5.82645e-13)">
        <g transform="matrix(0.00414951,0,0,0.00414951,-2286.72,-5994.13)">
            <path d="M631559,1.44454e+06L627449,1.44595e+06L631559,1.44737e+06L636945,1.44737e+06L636945,1.44454e+06L631559,1.44454e+06Z" style="fill:rgb(205,203,203);fill-rule:nonzero;stroke:rgb(255,157,157);stroke-width:0.57px;"/>
        </g>
        <g transform="matrix(0.00414951,0,0,0.00414951,-2286.72,-5994.13)">
            <path d="M620646,1.44454e+06L616535,1.44595e+06L620646,1.44737e+06L626031,1.44737e+06L626031,1.44454e+06L620646,1.44454e+06Z" style="fill:rgb(205,203,203);fill-rule:nonzero;stroke:rgb(255,157,157);stroke-width:0.57px;"/>
        </g>
        <g transform="matrix(0.00414951,0,0,0.00414951,-2286.72,-5994.13)">
            <path d="M609732,1.44454e+06L605622,1.44595e+06L609732,1.44737e+06L615118,1.44737e+06L615118,1.44454e+06L609732,1.44454e+06Z" style="fill:rgb(205,203,203);fill-rule:nonzero;stroke:rgb(255,157,157);stroke-width:0.57px;"/>
        </g>
        <g transform="matrix(0.00414951,0,0,0.00414951,-2286.72,-5994.13)">
            <path d="M551083,1.44454e+06L551083,1.44737e+06L556469,1.44737e+06L560580,1.44595e+06L556469,1.44454e+06L551083,1.44454e+06Z" style="fill:rgb(205,203,203);fill-rule:nonzero;stroke:rgb(255,157,157);stroke-width:0.57px;"/>
        </g>
        <g transform="matrix(0.00414951,0,0,0.00414951,-2286.72,-5994.13)">
            <path d="M561997,1.44454e+06L561997,1.44737e+06L567383,1.44737e+06L571493,1.44595e+06L567383,1.44454e+06L561997,1.44454e+06Z" style="fill:rgb(205,203,203);fill-rule:nonzero;stroke:rgb(255,157,157);stroke-width:0.57px;"/>
        </g>
        <g transform="matrix(0.00414951,0,0,0.00414951,-2286.72,-5994.13)">
            <path d="M572910,1.44454e+06L572910,1.44737e+06L578296,1.44737e+06L582406,1.44595e+06L578296,1.44454e+06L572910,1.44454e+06Z" style="fill:rgb(205,203,203);fill-rule:nonzero;stroke:rgb(255,157,157);stroke-width:0.57px;"/>
        </g>
        <g transform="matrix(0.00414951,0,0,0.00414951,-2286.72,-5994.13)">
            <rect x="591052" y="1.44454e+06" width="510.236" height="2834.65" style="fill:rgb(205,203,203);stroke:rgb(255,157,157);stroke-width:0.57px;"/>
        </g>
        <g transform="matrix(0.00414951,0,0,0.00414951,-2286.72,-5994.13)">
            <rect x="589890" y="1.4457e+06" width="2834.65" height="510.236" style="fill:rgb(205,203,203);stroke:rgb(255,157,157);stroke-width:0.57px;"/>
        </g>
        <g transform="matrix(0.00414951,0,0,0.00414951,-2286.72,-5994.13)">
            <rect x="591222" y="1.44468e+06" width="170.079" height="2551.18" style="fill:rgb(205,203,203);stroke:rgb(255,157,157);stroke-width:0.57px;"/>
        </g>
        <g transform="matrix(0.00414951,0,0,0.00414951,-2286.72,-5994.13)">
            <rect x="590031" y="1.44587e+06" width="2551.18" height="170.079" style="fill:rgb(205,203,203);stroke:rgb(255,157,157);stroke-width:0.57px;"/>
        </g>
    </g>
</svg>
