<?xml version="1.0" encoding="UTF-8" standalone="no"?>
<!DOCTYPE svg PUBLIC "-//W3C//DTD SVG 1.1//EN" "http://www.w3.org/Graphics/SVG/1.1/DTD/svg11.dtd">
<svg width="100%" height="100%" viewBox="0 0 750 750" version="1.1" xmlns="http://www.w3.org/2000/svg" xmlns:xlink="http://www.w3.org/1999/xlink" xml:space="preserve" xmlns:serif="http://www.serif.com/" style="fill-rule:evenodd;clip-rule:evenodd;stroke-linejoin:round;stroke-miterlimit:2;">
    <path id="widerstände" d="M246.319,719.348L503.33,719.348L512.517,715.817L524.327,710.804L535.956,705.386L547.387,699.561L558.606,693.342L569.605,686.73L580.365,679.743L590.873,672.386L601.12,664.668L611.092,656.593L620.775,648.174L630.156,639.425L639.231,630.35L647.981,620.969L656.399,611.285L664.474,601.314L672.193,591.067L679.549,580.558L686.536,569.799L693.149,558.8L699.367,547.581L705.192,536.149L710.611,524.521L715.623,512.71L720.223,500.734L724.404,488.602L728.154,476.333L731.473,463.939L734.36,451.439L736.804,438.846L738.816,426.174L740.379,413.438L741.498,400.658L742.166,387.847L742.391,375.017L742.166,362.19L741.498,349.379L740.379,336.596L738.816,323.863L736.804,311.191L734.36,298.595L731.473,286.095L728.154,273.704L724.404,261.435L720.223,249.302L715.623,237.325L710.611,225.515L705.192,213.887L699.367,202.456L693.149,191.234L686.536,180.237L679.549,169.477L672.193,158.967L664.474,148.721L656.399,138.75L647.981,129.067L639.231,119.685L630.156,110.612L620.775,101.862L611.092,93.445L601.12,85.372L590.873,77.65L580.365,70.291L569.605,63.304L558.606,56.696L547.387,50.476L535.956,44.651L524.327,39.229L512.517,34.216L500.541,29.618L488.409,25.441L476.14,21.69L463.745,18.369L451.246,15.483L438.652,13.035L310.997,13.035L298.401,15.483L285.901,18.369L273.51,21.69L261.241,25.441L249.109,29.618L237.132,34.216L225.321,39.229L213.693,44.651L202.262,50.476L191.041,56.696L180.043,63.304L169.284,70.291L158.774,77.65L148.528,85.372L138.557,93.445L128.874,101.862L119.491,110.612L110.419,119.685L101.669,129.067L93.251,138.75L85.178,148.721L77.456,158.967L70.098,169.477L63.11,180.237L56.502,191.234L50.282,202.456L44.457,213.887L39.035,225.515L34.022,237.325L29.424,249.302L25.247,261.435L21.496,273.704L18.176,286.095L15.29,298.595L12.842,311.191L10.834,323.863L9.271,336.596L8.153,349.379L7.481,362.19L7.257,375.017L7.481,387.847L8.153,400.658L9.271,413.438L10.834,426.174L12.842,438.846L15.29,451.439L18.176,463.939L21.496,476.333L25.247,488.602L29.424,500.734L34.022,512.71L39.035,524.521L44.457,536.149L50.282,547.581L56.502,558.8L63.11,569.799L70.098,580.558L77.456,591.067L85.178,601.314L93.251,611.285L101.669,620.969L110.419,630.35L119.491,639.425L128.874,648.174L138.557,656.593L148.528,664.668L158.774,672.386L169.284,679.743L180.043,686.73L191.041,693.342L202.262,699.561L213.693,705.386L225.321,710.804L237.132,715.817L246.319,719.348Z" style="fill:rgb(255,0,24);fill-opacity:0.2;"/>
</svg>
