<?xml version="1.0" encoding="UTF-8" standalone="no"?><!DOCTYPE svg PUBLIC "-//W3C//DTD SVG 1.1//EN" "http://www.w3.org/Graphics/SVG/1.1/DTD/svg11.dtd"><svg width="100%" height="100%" viewBox="0 0 750 750" version="1.1" xmlns="http://www.w3.org/2000/svg" xmlns:xlink="http://www.w3.org/1999/xlink" xml:space="preserve" xmlns:serif="http://www.serif.com/" style="fill-rule:evenodd;clip-rule:evenodd;stroke-linejoin:round;stroke-miterlimit:2;"><path d="M-0,372.36l-0.046,2.64l0.046,0l-0,-2.64l0.182,-10.447l0.685,-13.071l1.141,-13.04l1.595,-12.993l2.048,-12.928l2.497,-12.848l2.945,-12.754l3.388,-12.643l3.826,-12.517l4.262,-12.376l4.691,-12.22l5.114,-12.049l5.532,-11.863l5.942,-11.663l6.346,-11.448l6.742,-11.22l7.129,-10.977l7.507,-10.722l7.878,-10.454l8.237,-10.172l8.587,-9.879l8.927,-9.573l9.256,-9.255l9.573,-8.927l9.878,-8.588l10.173,-8.237l10.453,-7.877l10.722,-7.508l10.978,-7.129l11.22,-6.742l11.448,-6.345l11.663,-5.943l11.863,-5.532l12.048,-5.114l12.22,-4.691l12.376,-4.261l12.517,-3.827l12.643,-3.388l12.755,-2.944l12.848,-2.498l12.928,-2.048l12.993,-1.595l13.04,-1.141l13.071,-0.685l13.086,-0.228l13.089,0.228l13.071,0.685l13.04,1.141l12.991,1.595l12.928,2.048l12.848,2.498l12.754,2.944l12.643,3.388l12.519,3.827l12.375,4.261l12.22,4.691l12.049,5.114l11.863,5.532l11.662,5.943l11.45,6.345l11.219,6.742l10.977,7.129l10.724,7.508l10.453,7.877l10.171,8.237l9.878,8.588l9.574,8.927l9.255,9.255l8.926,9.573l8.589,9.879l8.238,10.172l7.876,10.454l7.509,10.722l7.128,10.977l6.742,11.22l6.345,11.448l5.942,11.663l5.533,11.863l5.113,12.049l4.693,12.22l4.261,12.376l3.826,12.517l3.388,12.643l2.944,12.754l2.498,12.848l2.047,12.928l1.595,12.993l1.142,13.04l0.684,13.071l0.229,13.087l-0.229,13.089l-0.684,13.071l-1.142,13.039l-1.595,12.991l-2.047,12.928l-2.498,12.848l-2.944,12.755l-3.388,12.643l-3.826,12.518l-4.261,12.376l-4.693,12.22l-5.113,12.049l-5.533,11.862l-5.942,11.662l-6.345,11.45l-6.742,11.219l-7.128,10.978l-7.509,10.723l-7.876,10.454l-8.238,10.171l-8.589,9.877l-8.926,9.575l-9.255,9.255l-9.574,8.926l-9.878,8.588l-10.171,8.239l-10.453,7.875l-10.724,7.509l-10.977,7.129l-11.219,6.741l-11.45,6.345l-11.662,5.943l-11.863,5.533l-12.049,5.112l-12.22,4.693l-12.375,4.262l-12.519,3.826l-12.643,3.388l-12.754,2.944l-12.848,2.498l-12.928,2.046l-12.991,1.596l-13.04,1.141l-13.071,0.685l-13.089,0.228l375.047,-0l-0,-750l-750,-0l-0,372.36Zm7.307,2.64l-7.353,0l0.046,2.641l-0,372.359l374.953,-0l-13.086,-0.228l-13.071,-0.685l-13.04,-1.141l-12.993,-1.596l-12.928,-2.046l-12.848,-2.498l-12.755,-2.944l-12.643,-3.388l-12.517,-3.826l-12.376,-4.262l-12.22,-4.693l-12.048,-5.112l-11.863,-5.533l-11.663,-5.943l-11.448,-6.345l-11.22,-6.741l-10.978,-7.129l-10.722,-7.509l-10.453,-7.875l-10.173,-8.239l-9.878,-8.588l-9.573,-8.926l-9.256,-9.255l-8.927,-9.575l-8.587,-9.877l-8.237,-10.171l-7.878,-10.454l-7.507,-10.723l-7.129,-10.978l-6.742,-11.219l-6.346,-11.45l-5.942,-11.662l-5.532,-11.862l-5.114,-12.049l-4.691,-12.22l-4.262,-12.376l-3.826,-12.518l-3.388,-12.643l-2.945,-12.755l-2.497,-12.848l-2.048,-12.928l-1.595,-12.991l-1.141,-13.039l-0.685,-13.071l-0.182,-10.448l-0,-2.641l7.307,0l0.224,12.832l0.671,12.814l1.119,12.783l1.564,12.739l2.007,12.674l2.449,12.596l2.886,12.503l3.322,12.397l3.752,12.272l4.177,12.134l4.599,11.979l5.014,11.813l5.424,11.631l5.826,11.434l6.221,11.222l6.609,11.001l6.989,10.762l7.361,10.511l7.723,10.249l8.076,9.973l8.419,9.686l8.752,9.385l9.074,9.074l9.385,8.752l9.685,8.42l9.973,8.075l10.248,7.722l10.512,7.362l10.762,6.988l11,6.609l11.224,6.22l11.434,5.826l11.63,5.424l11.813,5.015l9.188,3.527l18.392,6.309l-18.392,-6.309l257.071,0l9.187,-3.527l11.813,-5.015l11.631,-5.424l11.434,-5.826l11.221,-6.22l11.001,-6.609l10.763,-6.988l10.51,-7.362l10.249,-7.722l9.974,-8.075l9.686,-8.42l9.385,-8.752l9.073,-9.074l8.752,-9.385l8.42,-9.686l8.075,-9.973l7.723,-10.249l7.361,-10.511l6.988,-10.762l6.61,-11.001l6.22,-11.222l5.826,-11.434l5.424,-11.631l5.014,-11.813l4.599,-11.979l4.179,-12.134l3.751,-12.272l3.323,-12.397l2.884,-12.503l2.449,-12.596l2.008,-12.674l1.564,-12.739l1.118,-12.783l0.672,-12.814l0.225,-12.832l-0.225,-12.83l-0.672,-12.814l-1.118,-12.786l-1.564,-12.736l-2.008,-12.674l-2.449,-12.599l-2.884,-12.503l-3.323,-12.394l-3.751,-12.272l-4.179,-12.134l-4.599,-11.981l-5.014,-11.812l-5.424,-11.631l-5.826,-11.434l-6.22,-11.223l-6.61,-11l-6.988,-10.762l-7.361,-10.512l-7.723,-10.249l-8.075,-9.973l-8.42,-9.685l-8.752,-9.385l-9.073,-9.074l-9.385,-8.752l-9.686,-8.419l-9.974,-8.076l-10.249,-7.723l-10.51,-7.36l-10.763,-6.989l-11.001,-6.61l-11.221,-6.221l-11.434,-5.826l-11.631,-5.423l-11.813,-5.014l-11.979,-4.599l-12.135,-4.178l-12.272,-3.752l-12.396,-3.321l-12.503,-2.887l-12.596,-2.449l-12.674,-2.007l-12.739,-1.564l-12.783,-1.118l-12.815,-0.672l-12.832,-0.224l-12.83,0.224l-12.814,0.672l-12.785,1.118l-12.737,1.564l-12.674,2.007l-12.599,2.449l-12.502,2.887l-12.394,3.321l-12.272,3.752l-12.135,4.178l-11.98,4.599l-11.813,5.014l-11.63,5.423l-11.434,5.826l-11.224,6.221l-11,6.61l-10.762,6.989l-10.512,7.36l-10.248,7.723l-9.973,8.076l-9.685,8.419l-9.385,8.752l-9.074,9.074l-8.752,9.385l-8.419,9.685l-8.076,9.973l-7.723,10.249l-7.361,10.512l-6.989,10.762l-6.609,11l-6.221,11.223l-5.826,11.434l-5.424,11.631l-5.014,11.812l-4.599,11.981l-4.177,12.134l-3.752,12.272l-3.322,12.394l-2.886,12.503l-2.449,12.599l-2.007,12.674l-1.564,12.736l-1.119,12.786l-0.671,12.814l-0.224,12.83Zm496.323,344.404l-18.532,6.309l-220.287,-0l8.807,2.692l12.394,3.323l12.502,2.885l12.599,2.448l12.674,2.008l12.737,1.564l12.785,1.118l12.814,0.672l12.83,0.226l12.832,-0.226l12.815,-0.672l12.783,-1.118l12.739,-1.564l12.674,-2.008l12.596,-2.448l12.503,-2.885l12.396,-3.323l8.807,-2.692l18.532,-6.309Zm-69.767,-55.884l-14.875,-0l-0,14.875l14.875,-0l-0,-14.875Zm-128.678,-0l-14.875,-0l-0,14.875l14.875,-0l-0,-14.875Zm102.941,-0l-14.875,-0l-0,14.875l14.875,-0l-0,-14.875Zm-77.204,-0l-14.875,-0l-0,14.875l14.875,-0l-0,-14.875Zm128.676,-0l-14.875,-0l-0,14.875l14.875,-0l-0,-14.875Zm-102.941,-0l-14.875,-0l-0,14.875l14.875,-0l-0,-14.875Zm25.734,-0l-14.875,-0l-0,14.875l14.875,-0l-0,-14.875Zm77.207,-25.737l-14.875,-0l-0,14.875l14.875,-0l-0,-14.875Zm-25.735,-0l-14.875,-0l-0,14.875l14.875,-0l-0,-14.875Zm77.204,-0l-14.875,-0l-0,14.875l14.875,-0l-0,-14.875Zm-102.941,-0l-14.875,-0l-0,14.875l14.875,-0l-0,-14.875Zm-128.676,-0l-14.875,-0l-0,14.875l14.875,-0l-0,-14.875Zm102.941,-0l-14.875,-0l-0,14.875l14.875,-0l-0,-14.875Zm-128.676,-0l-14.875,-0l-0,14.875l14.875,-0l-0,-14.875Zm51.47,-0l-14.875,-0l-0,14.875l14.875,-0l-0,-14.875Zm25.737,-0l-14.875,-0l-0,14.875l14.875,-0l-0,-14.875Zm25.735,-0l-14.875,-0l-0,14.875l14.875,-0l-0,-14.875Zm128.675,-0l-14.875,-0l-0,14.875l14.875,-0l-0,-14.875Zm-25.734,-25.735l-14.875,-0l-0,14.875l14.875,-0l-0,-14.875Zm-180.148,-0l-14.875,-0l-0,14.875l14.875,-0l-0,-14.875Zm25.735,-0l-14.875,-0l-0,14.875l14.875,-0l-0,-14.875Zm25.737,-0l-14.875,-0l-0,14.875l14.875,-0l-0,-14.875Zm25.735,-0l-14.875,-0l-0,14.875l14.875,-0l-0,-14.875Zm180.147,-0l-14.875,-0l-0,14.875l14.875,-0l-0,-14.875Zm-51.472,-0l-14.875,-0l-0,14.875l14.875,-0l-0,-14.875Zm-51.469,-0l-14.875,-0l-0,14.875l14.875,-0l-0,-14.875Zm-25.737,-0l-14.875,-0l-0,14.875l14.875,-0l-0,-14.875Zm-25.735,-0l-14.875,-0l-0,14.875l14.875,-0l-0,-14.875Zm-154.411,-0l-14.875,-0l-0,14.875l14.875,-0l-0,-14.875Zm283.087,-25.734l-14.875,-0l-0,14.875l14.875,-0l-0,-14.875Zm-257.352,-0l-14.875,-0l-0,14.875l14.875,-0l-0,-14.875Zm-51.471,-0l-14.875,-0l-0,14.875l14.875,-0l-0,-14.875Zm102.941,-0l-14.875,-0l-0,14.875l14.875,-0l-0,-14.875Zm25.737,-0l-14.875,-0l-0,14.875l14.875,-0l-0,-14.875Zm25.735,-0l-14.875,-0l-0,14.875l14.875,-0l-0,-14.875Zm205.882,-0l-14.875,-0l-0,14.875l14.875,-0l-0,-14.875Zm-25.735,-0l-14.875,-0l-0,14.875l14.875,-0l-0,-14.875Zm-308.824,-0l-14.875,-0l-0,14.875l14.875,-0l-0,-14.875Zm231.618,-0l-14.875,-0l-0,14.875l14.875,-0l-0,-14.875Zm-25.735,-0l-14.875,-0l-0,14.875l14.875,-0l-0,-14.875Zm-25.737,-0l-14.875,-0l-0,14.875l14.875,-0l-0,-14.875Zm-25.735,-0l-14.875,-0l-0,14.875l14.875,-0l-0,-14.875Zm128.676,-25.738l-14.875,-0l-0,14.875l14.875,-0l-0,-14.875Zm-205.882,-0l-14.875,-0l-0,14.875l14.875,-0l-0,-14.875Zm25.737,-0l-14.875,-0l-0,14.875l14.875,-0l-0,-14.875Zm25.735,-0l-14.875,-0l-0,14.875l14.875,-0l-0,-14.875Zm-154.413,-0l-14.875,-0l-0,14.875l14.875,-0l-0,-14.875Zm283.088,-0l-14.875,-0l-0,14.875l14.875,-0l-0,-14.875Zm-102.941,-0l-14.875,-0l-0,14.875l14.875,-0l-0,-14.875Zm-205.882,-0l-14.875,-0l-0,14.875l14.875,-0l-0,-14.875Zm51.471,-0l-14.875,-0l-0,14.875l14.875,-0l-0,-14.875Zm360.294,-0l-14.875,-0l-0,14.875l14.875,-0l-0,-14.875Zm-25.735,-0l-14.875,-0l-0,14.875l14.875,-0l-0,-14.875Zm-25.735,-0l-14.875,-0l-0,14.875l14.875,-0l-0,-14.875Zm-77.206,-0l-14.875,-0l-0,14.875l14.875,-0l-0,-14.875Zm-25.735,-0l-14.875,-0l-0,14.875l14.875,-0l-0,-14.875Zm-25.737,-0l-14.875,-0l-0,14.875l14.875,-0l-0,-14.875Zm-154.411,-0l-14.875,-0l-0,14.875l14.875,-0l-0,-14.875Zm25.735,-0l-14.875,-0l-0,14.875l14.875,-0l-0,-14.875Zm51.472,-25.734l-14.875,-0l-0,14.875l14.875,-0l-0,-14.875Zm-25.737,-0l-14.875,-0l-0,14.875l14.875,-0l-0,-14.875Zm-25.735,-0l-14.875,-0l-0,14.875l14.875,-0l-0,-14.875Zm77.207,-0l-14.875,-0l-0,14.875l14.875,-0l-0,-14.875Zm-128.677,-0l-14.875,-0l-0,14.875l14.875,-0l-0,-14.875Zm-51.471,-0l-14.875,-0l-0,14.875l14.875,-0l-0,-14.875Zm-25.735,-0l-14.875,-0l-0,14.875l14.875,-0l-0,-14.875Zm102.941,-0l-14.875,-0l-0,14.875l14.875,-0l-0,-14.875Zm154.411,-0l-14.875,-0l-0,14.875l14.875,-0l-0,-14.875Zm25.737,-0l-14.875,-0l-0,14.875l14.875,-0l-0,-14.875Zm-51.472,-0l-14.875,-0l-0,14.875l14.875,-0l-0,-14.875Zm231.617,-0l-14.875,-0l-0,14.875l14.875,-0l-0,-14.875Zm-25.734,-0l-14.875,-0l-0,14.875l14.875,-0l-0,-14.875Zm-25.735,-0l-14.875,-0l-0,14.875l14.875,-0l-0,-14.875Zm-102.941,-0l-14.875,-0l-0,14.875l14.875,-0l-0,-14.875Zm77.206,-0l-14.875,-0l-0,14.875l14.875,-0l-0,-14.875Zm-25.737,-0l-14.875,-0l-0,14.875l14.875,-0l-0,-14.875Zm-25.735,-0l-14.875,-0l-0,14.875l14.875,-0l-0,-14.875Zm-283.088,-0l-14.875,-0l-0,14.875l14.875,-0l-0,-14.875Zm51.471,-25.735l-14.875,-0l-0,14.875l14.875,-0l-0,-14.875Zm-77.206,-0l-14.875,-0l-0,14.875l14.875,-0l-0,-14.875Zm205.882,-0l-14.875,-0l-0,14.875l14.875,-0l-0,-14.875Zm-180.147,-0l-14.875,-0l-0,14.875l14.875,-0l-0,-14.875Zm128.678,-0l-14.875,-0l-0,14.875l14.875,-0l-0,-14.875Zm-102.942,-0l-14.875,-0l-0,14.875l14.875,-0l-0,-14.875Zm51.47,-0l-14.875,-0l-0,14.875l14.875,-0l-0,-14.875Zm308.824,-0l-14.875,-0l-0,14.875l14.875,-0l-0,-14.875Zm-231.617,-0l-14.875,-0l-0,14.875l14.875,-0l-0,-14.875Zm-51.472,-0l-14.875,-0l-0,14.875l14.875,-0l-0,-14.875Zm-154.411,-0l-14.875,-0l-0,14.875l14.875,-0l-0,-14.875Zm257.352,-0l-14.875,-0l-0,14.875l14.875,-0l-0,-14.875Zm25.737,-0l-14.875,-0l-0,14.875l14.875,-0l-0,-14.875Zm25.735,-0l-14.875,-0l-0,14.875l14.875,-0l-0,-14.875Zm25.734,-0l-14.875,-0l-0,14.875l14.875,-0l-0,-14.875Zm25.735,-0l-14.875,-0l-0,14.875l14.875,-0l-0,-14.875Zm25.737,-0l-14.875,-0l-0,14.875l14.875,-0l-0,-14.875Zm25.735,-0l-14.875,-0l-0,14.875l14.875,-0l-0,-14.875Zm51.469,-0l-14.875,-0l-0,14.875l14.875,-0l-0,-14.875Zm-231.617,-25.735l-14.875,-0l-0,14.875l14.875,-0l-0,-14.875Zm-128.676,-0l-14.875,-0l-0,14.875l14.875,-0l-0,-14.875Zm25.735,-0l-14.875,-0l-0,14.875l14.875,-0l-0,-14.875Zm77.207,-0l-14.875,-0l-0,14.875l14.875,-0l-0,-14.875Zm-51.472,-0l-14.875,-0l-0,14.875l14.875,-0l-0,-14.875Zm-154.411,-0l-14.875,-0l-0,14.875l14.875,-0l-0,-14.875Zm25.735,-0l-14.875,-0l-0,14.875l14.875,-0l-0,-14.875Zm25.735,-0l-14.875,-0l-0,14.875l14.875,-0l-0,-14.875Zm25.736,-0l-14.875,-0l-0,14.875l14.875,-0l-0,-14.875Zm180.146,-0l-14.875,-0l-0,14.875l14.875,-0l-0,-14.875Zm25.737,-0l-14.875,-0l-0,14.875l14.875,-0l-0,-14.875Zm25.735,-0l-14.875,-0l-0,14.875l14.875,-0l-0,-14.875Zm25.734,-0l-14.875,-0l-0,14.875l14.875,-0l-0,-14.875Zm25.735,-0l-14.875,-0l-0,14.875l14.875,-0l-0,-14.875Zm25.737,-0l-14.875,-0l-0,14.875l14.875,-0l-0,-14.875Zm25.735,-0l-14.875,-0l-0,14.875l14.875,-0l-0,-14.875Zm25.735,-0l-14.875,-0l-0,14.875l14.875,-0l-0,-14.875Zm25.734,-0l-14.875,-0l-0,14.875l14.875,-0l-0,-14.875Zm-283.086,-0l-14.875,-0l-0,14.875l14.875,-0l-0,-14.875Zm-180.148,-25.737l-14.875,-0l-0,14.875l14.875,-0l-0,-14.875Zm283.089,-0l-14.875,-0l-0,14.875l14.875,-0l-0,-14.875Zm25.735,-0l-14.875,-0l-0,14.875l14.875,-0l-0,-14.875Zm-51.472,-0l-14.875,-0l-0,14.875l14.875,-0l-0,-14.875Zm-128.676,-0l-14.875,-0l-0,14.875l14.875,-0l-0,-14.875Zm25.735,-0l-14.875,-0l-0,14.875l14.875,-0l-0,-14.875Zm25.737,-0l-14.875,-0l-0,14.875l14.875,-0l-0,-14.875Zm25.735,-0l-14.875,-0l-0,14.875l14.875,-0l-0,-14.875Zm283.088,-0l-14.875,-0l-0,14.875l14.875,-0l-0,-14.875Zm-25.737,-0l-14.875,-0l-0,14.875l14.875,-0l-0,-14.875Zm-25.734,-0l-14.875,-0l-0,14.875l14.875,-0l-0,-14.875Zm-205.883,-0l-14.875,-0l-0,14.875l14.875,-0l-0,-14.875Zm180.148,-0l-14.875,-0l-0,14.875l14.875,-0l-0,-14.875Zm-437.501,-0l-14.875,-0l-0,14.875l14.875,-0l-0,-14.875Zm360.294,-0l-14.875,-0l-0,14.875l14.875,-0l-0,-14.875Zm-308.823,-0l-14.875,-0l-0,14.875l14.875,-0l-0,-14.875Zm25.735,-0l-14.875,-0l-0,14.875l14.875,-0l-0,-14.875Zm25.736,-0l-14.875,-0l-0,14.875l14.875,-0l-0,-14.875Zm308.824,-0l-14.875,-0l-0,14.875l14.875,-0l-0,-14.875Zm-283.089,-0l-14.875,-0l-0,14.875l14.875,-0l-0,-14.875Zm257.352,-0l-14.875,-0l-0,14.875l14.875,-0l-0,-14.875Zm-128.676,-25.734l-14.875,-0l-0,14.875l14.875,-0l-0,-14.875Zm205.883,-0l-14.875,-0l-0,14.875l14.875,-0l-0,-14.875Zm-334.559,-0l-14.875,-0l-0,14.875l14.875,-0l-0,-14.875Zm102.942,-0l-14.875,-0l-0,14.875l14.875,-0l-0,-14.875Zm-51.472,-0l-14.875,-0l-0,14.875l14.875,-0l-0,-14.875Zm-25.735,-0l-14.875,-0l-0,14.875l14.875,-0l-0,-14.875Zm360.295,-0l-14.875,-0l-0,14.875l14.875,-0l-0,-14.875Zm-411.765,-0l-14.875,-0l-0,14.875l14.875,-0l-0,-14.875Zm-25.736,-0l-14.875,-0l-0,14.875l14.875,-0l-0,-14.875Zm-25.735,-0l-14.875,-0l-0,14.875l14.875,-0l-0,-14.875Zm-25.735,-0l-14.875,-0l-0,14.875l14.875,-0l-0,-14.875Zm-25.736,-0l-14.875,-0l-0,14.875l14.875,-0l-0,-14.875Zm283.088,-0l-14.875,-0l-0,14.875l14.875,-0l-0,-14.875Zm205.882,-0l-14.875,-0l-0,14.875l14.875,-0l-0,-14.875Zm-128.676,-0l-14.875,-0l-0,14.875l14.875,-0l-0,-14.875Zm25.735,-0l-14.875,-0l-0,14.875l14.875,-0l-0,-14.875Zm25.737,-0l-14.875,-0l-0,14.875l14.875,-0l-0,-14.875Zm25.735,-0l-14.875,-0l-0,14.875l14.875,-0l-0,-14.875Zm-102.941,-0l-14.875,-0l-0,14.875l14.875,-0l-0,-14.875Zm205.882,-25.735l-14.875,-0l-0,14.875l14.875,-0l-0,-14.875Zm-463.236,-0l-14.875,-0l-0,14.875l14.875,-0l-0,-14.875Zm360.295,-0l-14.875,-0l-0,14.875l14.875,-0l-0,-14.875Zm-411.765,-0l-14.875,-0l-0,14.875l14.875,-0l-0,-14.875Zm386.03,-0l-14.875,-0l-0,14.875l14.875,-0l-0,-14.875Zm-25.737,-0l-14.875,-0l-0,14.875l14.875,-0l-0,-14.875Zm-25.735,-0l-14.875,-0l-0,14.875l14.875,-0l-0,-14.875Zm-25.734,-0l-14.875,-0l-0,14.875l14.875,-0l-0,-14.875Zm-51.472,-0l-14.875,-0l-0,14.875l14.875,-0l-0,-14.875Zm205.882,-0l-14.875,-0l-0,14.875l14.875,-0l-0,-14.875Zm-308.823,-0l-14.875,-0l-0,14.875l14.875,-0l-0,-14.875Zm-128.676,-0l-14.875,-0l-0,14.875l14.875,-0l-0,-14.875Zm205.882,-0l-14.875,-0l-0,14.875l14.875,-0l-0,-14.875Zm-102.941,-0l-14.875,-0l-0,14.875l14.875,-0l-0,-14.875Zm360.295,-0l-14.875,-0l-0,14.875l14.875,-0l-0,-14.875Zm-205.882,-0l-14.875,-0l-0,14.875l14.875,-0l-0,-14.875Zm-308.825,-0l-14.875,-0l-0,14.875l14.875,-0l-0,-14.875Zm205.884,-0l-14.875,-0l-0,14.875l14.875,-0l-0,-14.875Zm-77.207,-0l-14.875,-0l-0,14.875l14.875,-0l-0,-14.875Zm-25.735,-0l-14.875,-0l-0,14.875l14.875,-0l-0,-14.875Zm360.294,-0l-14.875,-0l-0,14.875l14.875,-0l-0,-14.875Zm-488.971,-0l-14.875,-0l-0,14.875l14.875,-0l-0,-14.875Zm257.354,-0l-14.875,-0l-0,14.875l14.875,-0l-0,-14.875Zm154.41,-25.735l-14.875,-0l-0,14.875l14.875,-0l-0,-14.875Zm-283.087,-0l-14.875,-0l-0,14.875l14.875,-0l-0,-14.875Zm154.411,-0l-14.875,-0l-0,14.875l14.875,-0l-0,-14.875Zm-180.147,-0l-14.875,-0l-0,14.875l14.875,-0l-0,-14.875Zm128.678,-0l-14.875,-0l-0,14.875l14.875,-0l-0,-14.875Zm154.41,-0l-14.875,-0l-0,14.875l14.875,-0l-0,-14.875Zm-128.675,-0l-14.875,-0l-0,14.875l14.875,-0l-0,-14.875Zm180.147,-0l-14.875,-0l-0,14.875l14.875,-0l-0,-14.875Zm25.735,-0l-14.875,-0l-0,14.875l14.875,-0l-0,-14.875Zm77.206,-0l-14.875,-0l-0,14.875l14.875,-0l-0,-14.875Zm25.735,-0l-14.875,-0l-0,14.875l14.875,-0l-0,-14.875Zm-257.354,-0l-14.875,-0l-0,14.875l14.875,-0l-0,-14.875Zm25.737,-0l-14.875,-0l-0,14.875l14.875,-0l-0,-14.875Zm25.735,-0l-14.875,-0l-0,14.875l14.875,-0l-0,-14.875Zm-360.295,-0l-14.875,-0l-0,14.875l14.875,-0l-0,-14.875Zm25.735,-0l-14.875,-0l-0,14.875l14.875,-0l-0,-14.875Zm180.147,-0l-14.875,-0l-0,14.875l14.875,-0l-0,-14.875Zm-51.47,-0l-14.875,-0l-0,14.875l14.875,-0l-0,-14.875Zm25.735,-0l-14.875,-0l-0,14.875l14.875,-0l-0,-14.875Zm316.534,-6.166l-0,1.471l1.396,-0l-0,-1.471l-1.396,-0Zm-443.367,-0l-0,1.471l1.397,-0l-0,-1.471l-1.397,-0Zm515.344,0.369l-1.066,0.366l1.066,0.368l1.398,-0l-0,-0.734l-1.398,-0Zm-25.478,-0l-1.066,0.366l1.066,0.368l1.399,-0l-0,-0.734l-1.399,-0Zm-5.662,-0l-1.066,0.366l1.066,0.368l1.398,-0l-0,-0.734l-1.398,-0Zm25.478,-0l-1.066,0.366l1.066,0.368l1.398,-0l-0,-0.734l-1.398,-0Zm-45.293,-0l-1.067,0.366l1.067,0.368l1.398,-0l-0,-0.734l-1.398,-0Zm-14.156,-0l-1.066,0.366l1.066,0.368l1.399,-0l-0,-0.734l-1.399,-0Zm67.941,-0l-1.066,0.366l1.066,0.368l1.398,-0l-0,-0.734l-1.398,-0Zm-50.955,-0l-1.067,0.366l1.067,0.368l1.398,-0l-0,-0.734l-1.398,-0Zm-19.816,-0l-1.066,0.366l1.066,0.368l1.399,-0l-0,-0.734l-1.399,-0Zm31.141,-0l-1.066,0.366l1.066,0.368l1.395,-0l-0,-0.734l-1.395,-0Zm14.152,-0l-1.066,0.366l1.066,0.368l1.399,-0l-0,-0.734l-1.399,-0Zm2.833,-0l-1.066,0.366l1.066,0.368l1.396,-0l-0,-0.734l-1.396,-0Zm-14.155,-0l-1.066,0.366l1.066,0.368l1.398,-0l-0,-0.734l-1.398,-0Zm-25.478,-0l-1.066,0.366l1.066,0.368l1.398,-0l-0,-0.734l-1.398,-0Zm2.83,-0l-1.066,0.366l1.066,0.368l1.398,-0l-0,-0.734l-1.398,-0Zm16.985,-0l-1.066,0.366l1.066,0.368l1.398,-0l-0,-0.734l-1.398,-0Zm36.803,-0l-1.066,0.366l1.066,0.368l1.396,-0l-0,-0.734l-1.396,-0Zm-25.478,-0l-1.066,0.366l1.066,0.368l1.396,-0l-0,-0.734l-1.396,-0Zm-16.985,-0l-1.066,0.366l1.066,0.368l1.396,-0l-0,-0.734l-1.396,-0Zm-8.492,-0l-1.067,0.366l1.067,0.368l1.395,-0l-0,-0.734l-1.395,-0Zm36.8,-0l-1.066,0.366l1.066,0.368l1.398,-0l-0,-0.734l-1.398,-0Zm2.83,-0l-1.066,0.366l1.066,0.368l1.398,-0l-0,-0.734l-1.398,-0Zm-28.308,-0l-1.066,0.366l1.066,0.368l1.398,-0l-0,-0.734l-1.398,-0Zm-19.815,-0l-1.066,0.366l1.066,0.368l1.396,-0l-0,-0.734l-1.396,-0Zm50.956,-0l-1.066,0.366l1.066,0.368l1.395,-0l-0,-0.734l-1.395,-0Zm2.83,-0l-1.066,0.366l1.066,0.368l1.398,-0l-0,-0.734l-1.398,-0Zm14.155,-0l-1.066,0.366l1.066,0.368l1.395,-0l-0,-0.734l-1.395,-0Zm-76.61,0.734l-0,-0.257l-0.259,-0l-0,0.257l0.259,-0Zm-0.48,-0l-0,-0.257l-0.257,-0l-0,0.257l0.257,-0Zm-184.368,-0.735l-0,0.734l1.398,-0l1.066,-0.368l-1.066,-0.366l-1.398,-0Zm-16.985,-0l-0,0.734l1.398,-0l1.066,-0.368l-1.066,-0.366l-1.398,-0Zm22.648,-0l-0,0.734l1.398,-0l1.066,-0.368l-1.066,-0.366l-1.398,-0Zm2.83,-0l-0,0.734l1.398,-0l1.066,-0.368l-1.066,-0.366l-1.398,-0Zm-28.308,-0l-0,0.734l1.398,-0l1.066,-0.368l-1.066,-0.366l-1.398,-0Zm33.97,-0l-0,0.734l1.398,-0l1.066,-0.368l-1.066,-0.366l-1.398,-0Zm2.83,-0l-0,0.734l1.398,-0l1.066,-0.368l-1.066,-0.366l-1.398,-0Zm-42.463,-0l-0,0.734l1.398,-0l1.066,-0.368l-1.066,-0.366l-1.398,-0Zm48.126,-0l-0,0.734l1.398,-0l1.066,-0.368l-1.066,-0.366l-1.398,-0Zm2.83,-0l-0,0.734l1.398,-0l1.066,-0.368l-1.066,-0.366l-1.398,-0Zm-53.786,-0l-0,0.734l1.398,-0l1.066,-0.368l-1.066,-0.366l-1.398,-0Zm-84.215,-0l-1.066,0.366l1.066,0.368l1.398,-0l-0,-0.734l-1.398,-0Zm-22.648,-0l-1.066,0.366l1.066,0.368l1.398,-0l-0,-0.734l-1.398,-0Zm5.663,-0l-1.066,0.366l1.066,0.368l1.398,-0l-0,-0.734l-1.398,-0Zm169.112,-0l-0,0.734l1.398,-0l1.066,-0.368l-1.066,-0.366l-1.398,-0Zm2.83,-0l-0,0.734l1.398,-0l1.066,-0.368l-1.066,-0.366l-1.398,-0Zm-169.112,-0l-1.066,0.366l1.066,0.368l1.398,-0l-0,-0.734l-1.398,-0Zm174.775,-0l-0,0.734l1.398,-0l1.066,-0.368l-1.066,-0.366l-1.398,-0Zm-287.979,-0l-1.066,0.366l1.066,0.368l1.398,-0l-0,-0.734l-1.398,-0Zm22.648,-0l-1.067,0.366l1.067,0.368l1.397,-0l-0,-0.734l-1.397,-0Zm273.823,-0l-0,0.734l1.398,-0l1.066,-0.368l-1.066,-0.366l-1.398,-0Zm-270.992,-0l-1.067,0.366l1.067,0.368l1.397,-0l-0,-0.734l-1.397,-0Zm19.801,-0l-1.067,0.366l1.067,0.368l1.397,-0l-0,-0.734l-1.397,-0Zm259.684,-0l-0,0.734l1.398,-0l1.066,-0.368l-1.066,-0.366l-1.398,-0Zm-256.853,-0l-1.067,0.366l1.067,0.368l1.397,-0l-0,-0.734l-1.397,-0Zm82.078,-0l-1.066,0.366l1.066,0.368l1.398,-0l-0,-0.734l-1.398,-0Zm5.663,-0l-1.066,0.366l1.066,0.368l1.398,-0l-0,-0.734l-1.398,-0Zm-67.925,-0l-1.067,0.366l1.067,0.368l1.397,-0l-0,-0.734l-1.397,-0Zm5.661,-0l-1.066,0.366l1.066,0.368l1.398,-0l-0,-0.734l-1.398,-0Zm248.361,-0l-0,0.734l1.398,-0l1.066,-0.368l-1.066,-0.366l-1.398,-0Zm5.663,-0l-0,0.734l1.395,-0l1.069,-0.368l-1.069,-0.366l-1.395,-0Zm2.83,-0l-0,0.734l1.398,-0l1.066,-0.368l-1.066,-0.366l-1.398,-0Zm5.65,-0l-0,0.734l1.398,-0l1.066,-0.368l-1.066,-0.366l-1.398,-0Zm-197.408,-0l-1.068,0.366l1.068,0.368l1.396,-0l-0,-0.734l-1.396,-0Zm-42.465,-0l-1.066,0.366l1.066,0.368l1.398,-0l-0,-0.734l-1.398,-0Zm56.618,-0l-1.066,0.366l1.066,0.368l1.398,-0l-0,-0.734l-1.398,-0Zm8.488,-0l-1.066,0.366l1.066,0.368l1.398,-0l-0,-0.734l-1.398,-0Zm16.985,-0l-1.066,0.366l1.066,0.368l1.398,-0l-0,-0.734l-1.398,-0Zm5.659,-0l-1.066,0.366l1.066,0.368l1.398,-0l-0,-0.734l-1.398,-0Zm-82.088,-0l-1.066,0.366l1.066,0.368l1.398,-0l-0,-0.734l-1.398,-0Zm242.704,-0l-0,0.734l1.398,-0l1.066,-0.368l-1.066,-0.366l-1.398,-0Zm45.293,-0l-0,0.734l1.398,-0l1.066,-0.368l-1.066,-0.366l-1.398,-0Zm-50.956,-0l-0,0.734l1.398,-0l1.066,-0.368l-1.066,-0.366l-1.398,-0Zm67.941,-0l-0,0.734l1.398,-0l1.066,-0.368l-1.066,-0.366l-1.398,-0Zm-59.448,-0l-0,0.734l1.398,-0l1.066,-0.368l-1.066,-0.366l-1.398,-0Zm5.662,-0l-0,0.734l1.398,-0l1.066,-0.368l-1.066,-0.366l-1.398,-0Zm2.83,-0l-0,0.734l1.398,-0l1.066,-0.368l-1.066,-0.366l-1.398,-0Zm5.663,-0l-0,0.734l1.398,-0l1.066,-0.368l-1.066,-0.366l-1.398,-0Zm25.478,-0l-0,0.734l1.398,-0l1.066,-0.368l-1.066,-0.366l-1.398,-0Zm16.985,-0l-0,0.734l1.398,-0l1.066,-0.368l-1.066,-0.366l-1.398,-0Zm-39.633,-0l-0,0.734l1.398,-0l1.066,-0.368l-1.066,-0.366l-1.398,-0Zm48.126,-0l-0,0.734l1.398,-0l1.066,-0.368l-1.066,-0.366l-1.398,-0Zm2.83,-0l-0,0.734l1.398,-0l1.066,-0.368l-1.066,-0.366l-1.398,-0Zm-36.801,-0l-0,0.734l1.398,-0l1.066,-0.368l-1.066,-0.366l-1.398,-0Zm2.83,-0l-0,0.734l1.398,-0l1.066,-0.368l-1.066,-0.366l-1.398,-0Zm-110.392,-0l-0,0.734l1.399,-0l1.066,-0.368l-1.066,-0.366l-1.399,-0Zm2.83,-0l-0,0.734l1.399,-0l1.066,-0.368l-1.066,-0.366l-1.399,-0Zm-67.912,-0l-0,0.734l1.399,-0l1.066,-0.368l-1.066,-0.366l-1.399,-0Zm-2.83,-0l-0,0.734l1.399,-0l1.066,-0.368l-1.066,-0.366l-1.399,-0Zm110.375,-0l-0,0.734l1.399,-0l1.066,-0.368l-1.066,-0.366l-1.399,-0Zm-169.112,-0l-1.066,0.366l1.066,0.368l1.399,-0l-0,-0.734l-1.399,-0Zm25.473,-0l-1.066,0.366l1.066,0.368l1.399,-0l-0,-0.734l-1.399,-0Zm61.572,-0l-0,0.734l1.398,-0l1.067,-0.368l-1.067,-0.366l-1.398,-0Zm166.981,-0l-0,0.734l1.398,-0l1.067,-0.368l-1.067,-0.366l-1.398,-0Zm-276.673,-0l-1.067,0.366l1.067,0.368l1.398,-0l-0,-0.734l-1.398,-0Zm106.862,-0l-0,0.734l1.398,-0l1.067,-0.368l-1.067,-0.366l-1.398,-0Zm141.503,-0l-0,0.734l1.399,-0l1.066,-0.368l-1.066,-0.366l-1.399,-0Zm2.83,-0l-0,0.734l1.399,-0l1.066,-0.368l-1.066,-0.366l-1.399,-0Zm-254.025,-0l-1.067,0.366l1.067,0.368l1.398,-0l-0,-0.734l-1.398,-0Zm276.673,-0l-0,0.734l1.398,-0l1.067,-0.368l-1.067,-0.366l-1.398,-0Zm-401.201,-0l-1.066,0.366l1.066,0.368l1.397,-0l-0,-0.734l-1.397,-0Zm203.782,-0l-1.066,0.366l1.066,0.368l1.395,-0l-0,-0.734l-1.395,-0Zm-90.577,-0l-1.066,0.366l1.066,0.368l1.395,-0l-0,-0.734l-1.395,-0Zm194.59,-0l-0,0.734l1.395,-0l1.066,-0.368l-1.066,-0.366l-1.395,-0Zm-16.985,-0l-0,0.734l1.395,-0l1.066,-0.368l-1.066,-0.366l-1.395,-0Zm14.155,-0l-0,0.734l1.395,-0l1.066,-0.368l-1.066,-0.366l-1.395,-0Zm-39.604,-0l-0,0.734l1.395,-0l1.066,-0.368l-1.066,-0.366l-1.395,-0Zm-169.141,-0l-1.066,0.366l1.066,0.368l1.395,-0l-0,-0.734l-1.395,-0Zm234.223,-0l-0,0.734l1.395,-0l1.066,-0.368l-1.066,-0.366l-1.395,-0Zm-107.545,-0l-0,0.734l1.395,-0l1.066,-0.368l-1.066,-0.366l-1.395,-0Zm25.478,-0l-0,0.734l1.395,-0l1.066,-0.368l-1.066,-0.366l-1.395,-0Zm-109.693,-0l-1.066,0.366l1.066,0.368l1.395,-0l-0,-0.734l-1.395,-0Zm251.196,-0l-0,0.734l1.395,-0l1.066,-0.368l-1.066,-0.366l-1.395,-0Zm-42.463,-0l-0,0.734l1.395,-0l1.066,-0.368l-1.066,-0.366l-1.395,-0Zm16.985,-0l-0,0.734l1.395,-0l1.066,-0.368l-1.066,-0.366l-1.395,-0Zm-25.478,-0l-0,0.734l1.396,-0l1.066,-0.368l-1.066,-0.366l-1.396,-0Zm-82.055,-0l-0,0.734l1.396,-0l1.066,-0.368l-1.066,-0.366l-1.396,-0Zm67.912,-0l-0,0.734l1.396,-0l1.066,-0.368l-1.066,-0.366l-1.396,-0Zm-25.478,-0l-0,0.734l1.396,-0l1.066,-0.368l-1.066,-0.366l-1.396,-0Zm22.648,-0l-0,0.734l1.396,-0l1.066,-0.368l-1.066,-0.366l-1.396,-0Zm-90.56,-0l-0,0.734l1.396,-0l1.066,-0.368l-1.066,-0.366l-1.396,-0Zm8.493,-0l-0,0.734l1.395,-0l1.067,-0.368l-1.067,-0.366l-1.395,-0Zm42.434,-0l-0,0.734l1.396,-0l1.066,-0.368l-1.066,-0.366l-1.396,-0Zm-8.464,-0l-0,0.734l1.396,-0l1.066,-0.368l-1.066,-0.366l-1.396,-0Zm39.604,-0l-0,0.734l1.396,-0l1.066,-0.368l-1.066,-0.366l-1.396,-0Zm-16.985,-0l-0,0.734l1.396,-0l1.066,-0.368l-1.066,-0.366l-1.396,-0Zm59.436,-0l-0,0.734l1.396,-0l1.066,-0.368l-1.066,-0.366l-1.396,-0Zm-141.503,-0l-0,0.734l1.396,-0l1.066,-0.368l-1.066,-0.366l-1.396,-0Zm101.882,-0l-0,0.734l1.396,-0l1.066,-0.368l-1.066,-0.366l-1.396,-0Zm-120.998,-0l-1.066,0.366l1.066,0.368l1.396,-0l-0,-0.734l-1.396,-0Zm-8.485,-0l-1.067,0.366l1.067,0.368l1.395,-0l-0,-0.734l-1.395,-0Zm-5.663,-0l-1.066,0.366l1.066,0.368l1.396,-0l-0,-0.734l-1.396,-0Zm-2.83,-0l-1.066,0.366l1.066,0.368l1.396,-0l-0,-0.734l-1.396,-0Zm-5.663,-0l-1.066,0.366l1.066,0.368l1.396,-0l-0,-0.734l-1.396,-0Zm-2.83,-0l-1.066,0.366l1.066,0.368l1.396,-0l-0,-0.734l-1.396,-0Zm-5.657,-0l-1.067,0.366l1.067,0.368l1.395,-0l-0,-0.734l-1.395,-0Zm217.225,-0l-0,0.734l1.396,-0l1.066,-0.368l-1.066,-0.366l-1.396,-0Zm-225.718,-0l-1.066,0.366l1.066,0.368l1.396,-0l-0,-0.734l-1.396,-0Zm-2.83,-0l-1.066,0.366l1.066,0.368l1.396,-0l-0,-0.734l-1.396,-0Zm220.055,-0l-0,0.734l1.396,-0l1.066,-0.368l-1.066,-0.366l-1.396,-0Zm-225.718,-0l-1.066,0.366l1.066,0.368l1.396,-0l-0,-0.734l-1.396,-0Zm14.156,-0l-1.067,0.366l1.067,0.368l1.395,-0l-0,-0.734l-1.395,-0Zm-56.619,-0l-1.066,0.366l1.066,0.368l1.396,-0l-0,-0.734l-1.396,-0Zm319.137,-0l-0,0.734l1.396,-0l1.066,-0.368l-1.066,-0.366l-1.396,-0Zm-8.493,-0l-0,0.734l1.396,-0l1.066,-0.368l-1.066,-0.366l-1.396,-0Zm-285.166,-0l-1.066,0.366l1.066,0.368l1.396,-0l-0,-0.734l-1.396,-0Zm276.674,-0l-0,0.734l1.395,-0l1.067,-0.368l-1.067,-0.366l-1.395,-0Zm-8.493,-0l-0,0.734l1.396,-0l1.066,-0.368l-1.066,-0.366l-1.396,-0Zm-276.673,-0l-1.067,0.366l1.067,0.368l1.395,-0l-0,-0.734l-1.395,-0Zm-31.141,-0l-1.066,0.366l1.066,0.368l1.397,-0l-0,-0.734l-1.397,-0Zm-179.357,-0l-0,0.734l1.396,-0l1.067,-0.368l-1.067,-0.366l-1.396,-0Zm151.064,-0l-1.066,0.366l1.066,0.368l1.397,-0l-0,-0.734l-1.397,-0Zm-2.831,-0l-1.066,0.366l1.066,0.368l1.397,-0l-0,-0.734l-1.397,-0Zm-2.831,-0l-1.066,0.366l1.066,0.368l1.397,-0l-0,-0.734l-1.397,-0Zm-8.492,-0l-1.066,0.366l1.066,0.368l1.397,-0l-0,-0.734l-1.397,-0Zm-2.831,-0l-1.066,0.366l1.066,0.368l1.397,-0l-0,-0.734l-1.397,-0Zm-2.831,-0l-1.066,0.366l1.066,0.368l1.397,-0l-0,-0.734l-1.397,-0Zm-5.662,-0l-1.066,0.366l1.066,0.368l1.397,-0l-0,-0.734l-1.397,-0Zm-2.831,-0l-1.066,0.366l1.066,0.368l1.397,-0l-0,-0.734l-1.397,-0Zm-8.477,-0l-1.066,0.366l1.066,0.368l1.397,-0l-0,-0.734l-1.397,-0Zm-2.831,-0l-1.066,0.366l1.066,0.368l1.397,-0l-0,-0.734l-1.397,-0Zm-2.831,-0l-1.066,0.366l1.066,0.368l1.397,-0l-0,-0.734l-1.397,-0Zm-2.831,-0l-1.066,0.366l1.066,0.368l1.397,-0l-0,-0.734l-1.397,-0Zm-2.831,-0l-1.066,0.366l1.066,0.368l1.397,-0l-0,-0.734l-1.397,-0Zm-2.831,-0l-1.066,0.366l1.066,0.368l1.397,-0l-0,-0.734l-1.397,-0Zm-2.83,-0l-1.067,0.366l1.067,0.368l1.396,-0l-0,-0.734l-1.396,-0Zm-5.662,-0l-1.066,0.366l1.066,0.368l1.397,-0l-0,-0.734l-1.397,-0Zm-40.689,-0l-0,0.734l1.396,-0l1.067,-0.368l-1.067,-0.366l-1.396,-0Zm35.027,-0l-1.066,0.366l1.066,0.368l1.397,-0l-0,-0.734l-1.397,-0Zm-29.366,-0l-0,0.734l1.397,-0l1.066,-0.368l-1.066,-0.366l-1.397,-0Zm2.831,-0l-0,0.734l1.397,-0l1.066,-0.368l-1.066,-0.366l-1.397,-0Zm2.831,-0l-0,0.734l1.397,-0l1.066,-0.368l-1.066,-0.366l-1.397,-0Zm2.831,-0l-0,0.734l1.397,-0l1.066,-0.368l-1.066,-0.366l-1.397,-0Zm2.831,-0l-0,0.734l1.397,-0l1.066,-0.368l-1.066,-0.366l-1.397,-0Zm2.831,-0l-0,0.734l1.397,-0l1.066,-0.368l-1.066,-0.366l-1.397,-0Zm12.38,-0l-1.066,0.366l1.066,0.368l1.397,-0l-0,-0.734l-1.397,-0Zm-2.83,-0l-1.066,0.366l1.066,0.368l1.397,-0l-0,-0.734l-1.397,-0Zm48.109,-0l-1.066,0.366l1.066,0.368l1.397,-0l-0,-0.734l-1.397,-0Zm48.125,-0l-1.066,0.366l1.066,0.368l1.397,-0l-0,-0.734l-1.397,-0Zm-2.831,-0l-1.066,0.366l1.066,0.368l1.397,-0l-0,-0.734l-1.397,-0Zm-2.831,-0l-1.066,0.366l1.066,0.368l1.397,-0l-0,-0.734l-1.397,-0Zm-5.661,-0l-1.066,0.366l1.066,0.368l1.397,-0l-0,-0.734l-1.397,-0Zm-5.662,-0l-1.066,0.366l1.066,0.368l1.397,-0l-0,-0.734l-1.397,-0Zm-2.831,-0l-1.066,0.366l1.066,0.368l1.397,-0l-0,-0.734l-1.397,-0Zm-2.831,-0l-1.066,0.366l1.066,0.368l1.397,-0l-0,-0.734l-1.397,-0Zm-151.065,-0l-0,0.734l1.397,-0l1.066,-0.368l-1.066,-0.366l-1.397,-0Zm39.619,-0l-0,0.734l1.397,-0l1.066,-0.368l-1.066,-0.366l-1.397,-0Zm2.831,-0l-0,0.734l1.397,-0l1.066,-0.368l-1.066,-0.366l-1.397,-0Zm-33.958,-0l-0,0.734l1.397,-0l1.066,-0.368l-1.066,-0.366l-1.397,-0Zm2.831,-0l-0,0.734l1.397,-0l1.066,-0.368l-1.066,-0.366l-1.397,-0Zm2.831,-0l-0,0.734l1.397,-0l1.066,-0.368l-1.066,-0.366l-1.397,-0Zm2.818,-0l-0,0.734l1.397,-0l1.066,-0.368l-1.066,-0.366l-1.397,-0Zm2.831,-0l-0,0.734l1.397,-0l1.066,-0.368l-1.066,-0.366l-1.397,-0Zm-25.464,-0l-0,0.734l1.397,-0l1.066,-0.368l-1.066,-0.366l-1.397,-0Zm33.956,-0l-0,0.734l1.397,-0l1.066,-0.368l-1.066,-0.366l-1.397,-0Zm2.831,-0l-0,0.734l1.397,-0l1.066,-0.368l-1.066,-0.366l-1.397,-0Zm2.831,-0l-0,0.734l1.397,-0l1.066,-0.368l-1.066,-0.366l-1.397,-0Zm2.831,-0l-0,0.734l1.397,-0l1.066,-0.368l-1.066,-0.366l-1.397,-0Zm142.569,-0l-1.065,0.366l1.065,0.368l1.398,-0l-0,-0.734l-1.398,-0Zm-176.527,-0l-0,0.734l1.397,-0l1.067,-0.368l-1.067,-0.366l-1.397,-0Zm2.831,-0l-0,0.734l1.397,-0l1.067,-0.368l-1.067,-0.366l-1.397,-0Zm16.972,-0l-0,0.734l1.398,-0l1.066,-0.368l-1.066,-0.366l-1.398,-0Zm2.831,-0l-0,0.734l1.397,-0l1.067,-0.368l-1.067,-0.366l-1.397,-0Zm19.816,-0l-0,0.734l1.398,-0l1.066,-0.368l-1.066,-0.366l-1.398,-0Zm5.662,-0l-0,0.734l1.397,-0l1.067,-0.368l-1.067,-0.366l-1.397,-0Zm241.64,-0l-1.066,0.366l1.066,0.368l1.398,-0l-0,-0.734l-1.398,-0Zm-5.663,-0l-1.066,0.366l1.066,0.368l1.398,-0l-0,-0.734l-1.398,-0Zm-213.852,0.734l-0,-0.256l-0.257,-0l-0,0.256l0.257,-0Zm-0.478,-0l-0,-0.256l-0.257,-0l-0,0.256l0.257,-0Zm211.5,-0.734l-1.066,0.366l1.066,0.368l1.398,-0l-0,-0.734l-1.398,-0Zm-5.659,-0l-1.066,0.366l1.066,0.368l1.398,-0l-0,-0.734l-1.398,-0Zm50.253,-0l-0,0.734l1.398,-0l1.066,-0.368l-1.066,-0.366l-1.398,-0Zm-143.65,-0.001l-1.066,0.366l1.066,0.368l1.398,-0l-0,-0.734l-1.398,-0Zm331.328,0.259l-0,-0.257l-0.259,-0l-0,0.257l0.259,-0Zm-0.48,-0l-0,-0.257l-0.257,-0l-0,0.257l0.257,-0Zm-443.071,-0.001l0.257,-0l-0,-0.257l-0.257,-0l-0,0.257Zm-0.478,-0l0.257,-0l-0,-0.257l-0.257,-0l-0,0.257Zm486.76,-20.196l-14.875,-0l-0,14.875l14.875,-0l-0,-14.875Zm-77.206,-0l-14.875,-0l-0,14.875l14.875,-0l-0,-14.875Zm-51.472,-0l-14.875,-0l-0,14.875l14.875,-0l-0,-14.875Zm-25.735,-0l-14.875,-0l-0,14.875l14.875,-0l-0,-14.875Zm-51.469,-0l-14.875,-0l-0,14.875l14.875,-0l-0,-14.875Zm-25.737,-0l-14.875,-0l-0,14.875l14.875,-0l-0,-14.875Zm-154.411,-0l-14.875,-0l-0,14.875l14.875,-0l-0,-14.875Zm25.735,-0l-14.875,-0l-0,14.875l14.875,-0l-0,-14.875Zm257.354,-0l-14.875,-0l-0,14.875l14.875,-0l-0,-14.875Zm-154.413,-0l-14.875,-0l-0,14.875l14.875,-0l-0,-14.875Zm77.207,-0l-14.875,-0l-0,14.875l14.875,-0l-0,-14.875Zm-154.413,-0l-14.875,-0l-0,14.875l14.875,-0l-0,-14.875Zm25.737,-0l-14.875,-0l-0,14.875l14.875,-0l-0,-14.875Zm25.735,-0l-14.875,-0l-0,14.875l14.875,-0l-0,-14.875Zm-154.413,-0l-14.875,-0l-0,14.875l14.875,-0l-0,-14.875Zm-102.941,-0l-14.875,-0l-0,14.875l14.875,-0l-0,-14.875Zm25.735,-0l-14.875,-0l-0,14.875l14.875,-0l-0,-14.875Zm102.942,-0l-14.875,-0l-0,14.875l14.875,-0l-0,-14.875Zm437.5,-0l-14.875,-0l-0,14.875l14.875,-0l-0,-14.875Zm-411.765,-25.735l-14.875,-0l-0,14.875l14.875,-0l-0,-14.875Zm334.559,-0l-14.875,-0l-0,14.875l14.875,-0l-0,-14.875Zm-128.676,-0l-14.875,-0l-0,14.875l14.875,-0l-0,-14.875Zm-283.089,-0l-14.875,-0l-0,14.875l14.875,-0l-0,-14.875Zm257.354,-0l-14.875,-0l-0,14.875l14.875,-0l-0,-14.875Zm-25.737,-0l-14.875,-0l-0,14.875l14.875,-0l-0,-14.875Zm257.354,-0l-14.875,-0l-0,14.875l14.875,-0l-0,-14.875Zm-51.472,-0l-14.875,-0l-0,14.875l14.875,-0l-0,-14.875Zm-102.941,-0l-14.875,-0l-0,14.875l14.875,-0l-0,-14.875Zm-360.293,-0l-14.875,-0l-0,14.875l14.875,-0l-0,-14.875Zm231.617,-0l-14.875,-0l-0,14.875l14.875,-0l-0,-14.875Zm257.354,-0l-14.875,-0l-0,14.875l14.875,-0l-0,-14.875Zm-154.413,-0l-14.875,-0l-0,14.875l14.875,-0l-0,-14.875Zm-257.352,-0l-14.875,-0l-0,14.875l14.875,-0l-0,-14.875Zm-128.677,-0l-14.875,-0l-0,14.875l14.875,-0l-0,-14.875Zm257.354,-0l-14.875,-0l-0,14.875l14.875,-0l-0,-14.875Zm-25.735,-0l-14.875,-0l-0,14.875l14.875,-0l-0,-14.875Zm-25.737,-0l-14.875,-0l-0,14.875l14.875,-0l-0,-14.875Zm-25.735,-0l-14.875,-0l-0,14.875l14.875,-0l-0,-14.875Zm-154.412,-0l-14.875,-0l-0,14.875l14.875,-0l-0,-14.875Zm77.206,-0l-14.875,-0l-0,14.875l14.875,-0l-0,-14.875Zm334.56,-0l-14.875,-0l-0,14.875l14.875,-0l-0,-14.875Zm25.735,-0l-14.875,-0l-0,14.875l14.875,-0l-0,-14.875Zm-411.765,-25.734l-14.875,-0l-0,14.875l14.875,-0l-0,-14.875Zm257.352,-0l-14.875,-0l-0,14.875l14.875,-0l-0,-14.875Zm-102.941,-0l-14.875,-0l-0,14.875l14.875,-0l-0,-14.875Zm-25.735,-0l-14.875,-0l-0,14.875l14.875,-0l-0,-14.875Zm231.617,-0l-14.875,-0l-0,14.875l14.875,-0l-0,-14.875Zm77.207,-0l-14.875,-0l-0,14.875l14.875,-0l-0,-14.875Zm51.471,-0l-14.875,-0l-0,14.875l14.875,-0l-0,-14.875Zm-77.206,-0l-14.875,-0l-0,14.875l14.875,-0l-0,-14.875Zm-102.941,-0l-14.875,-0l-0,14.875l14.875,-0l-0,-14.875Zm-102.941,-0l-14.875,-0l-0,14.875l14.875,-0l-0,-14.875Zm-102.942,-0l-14.875,-0l-0,14.875l14.875,-0l-0,-14.875Zm231.617,-0l-14.875,-0l-0,14.875l14.875,-0l-0,-14.875Zm-257.352,-0l-14.875,-0l-0,14.875l14.875,-0l-0,-14.875Zm-25.736,-0l-14.875,-0l-0,14.875l14.875,-0l-0,-14.875Zm334.56,-0l-14.875,-0l-0,14.875l14.875,-0l-0,-14.875Zm-411.766,-0l-14.875,-0l-0,14.875l14.875,-0l-0,-14.875Zm488.97,-0l-14.875,-0l0,14.875l14.875,-0l0,-14.875Zm-231.617,-0l-14.875,-0l0,14.875l14.875,-0l0,-14.875Zm-205.882,-0l-14.875,-0l-0,14.875l14.875,-0l-0,-14.875Zm25.735,-25.735l-14.875,-0l-0,14.875l14.875,-0l-0,-14.875Zm-77.206,-0l-14.875,-0l-0,14.875l14.875,-0l-0,-14.875Zm257.353,-0l-14.875,-0l0,14.875l14.875,-0l0,-14.875Zm180.148,-0l-14.875,-0l0,14.875l14.875,-0l0,-14.875Zm25.735,-0l-14.875,-0l0,14.875l14.875,-0l0,-14.875Zm-51.47,-0l-14.875,-0l0,14.875l14.875,-0l0,-14.875Zm-386.03,-0l-14.875,-0l0,14.875l14.875,-0l0,-14.875Zm283.089,-0l-14.875,-0l0,14.875l14.875,-0l0,-14.875Zm77.204,-0l-14.875,-0l0,14.875l14.875,-0l0,-14.875Zm-51.469,-0l-14.875,-0l0,14.875l14.875,-0l0,-14.875Zm-154.413,-0l-14.875,-0l0,14.875l14.875,-0l0,-14.875Zm25.737,-0l-14.875,-0l0,14.875l14.875,-0l0,-14.875Zm77.204,-0l-14.875,-0l0,14.875l14.875,-0l0,-14.875Zm-154.411,-0l-14.875,-0l0,14.875l14.875,-0l0,-14.875Zm360.293,-0l-14.875,-0l0,14.875l14.875,-0l0,-14.875Zm25.737,-0l-14.875,-0l0,14.875l14.875,-0l0,-14.875Zm-360.295,-0l-14.875,-0l0,14.875l14.875,-0l0,-14.875Zm77.207,-0l-14.875,-0l0,14.875l14.875,-0l0,-14.875Zm128.675,-0l-14.875,-0l0,14.875l14.875,-0l0,-14.875Zm-308.823,-0l-14.875,-0l-0,14.875l14.875,-0l-0,-14.875Zm51.471,-0l-14.875,-0l-0,14.875l14.875,-0l-0,-14.875Zm334.559,-25.736l-14.875,-0l0,14.875l14.875,-0l0,-14.875Zm-128.676,-0l-14.875,-0l0,14.875l14.875,-0l0,-14.875Zm-102.941,-0l-14.875,-0l0,14.875l14.875,-0l0,-14.875Zm154.41,-0l-14.875,-0l0,14.875l14.875,-0l0,-14.875Zm-205.882,-0l-14.875,-0l0,14.875l14.875,-0l0,-14.875Zm-51.47,-0l-14.875,-0l0,14.875l14.875,-0l0,-14.875Zm-51.471,-0l-14.875,-0l0,14.875l14.875,-0l0,-14.875Zm205.882,-0l-14.875,-0l0,14.875l14.875,-0l0,-14.875Zm-231.617,-0l-14.875,-0l0,14.875l14.875,-0l0,-14.875Zm437.5,-0l-14.875,-0l0,14.875l14.875,-0l0,-14.875Zm-51.47,-0l-14.875,-0l0,14.875l14.875,-0l0,-14.875Zm-180.147,-0l-14.875,-0l0,14.875l14.875,-0l0,-14.875Zm102.941,-0l-14.875,-0l0,14.875l14.875,-0l0,-14.875Zm-154.413,-0l-14.875,-0l0,14.875l14.875,-0l0,-14.875Zm-102.941,-0l-14.875,-0l0,14.875l14.875,-0l0,-14.875Zm51.471,-0l-14.875,-0l0,14.875l14.875,-0l0,-14.875Zm154.411,-0l-14.875,-0l0,14.875l14.875,-0l0,-14.875Zm205.882,-0l-14.875,-0l0,14.875l14.875,-0l0,-14.875Zm-102.941,-0l-14.875,-0l0,14.875l14.875,-0l0,-14.875Zm25.737,-25.735l-14.875,-0l0,14.875l14.875,-0l0,-14.875Zm-257.354,-0l-14.875,-0l0,14.875l14.875,-0l0,-14.875Zm-51.47,-0l-14.875,-0l0,14.875l14.875,-0l0,-14.875Zm231.618,-0l-14.875,-0l0,14.875l14.875,-0l0,-14.875Zm128.676,-0l-14.875,-0l0,14.875l14.875,-0l0,-14.875Zm-231.617,-0l-14.875,-0l0,14.875l14.875,-0l0,-14.875Zm257.351,-0l-14.875,-0l0,14.875l14.875,-0l0,-14.875Zm-308.823,-0l-14.875,-0l0,14.875l14.875,-0l0,-14.875Zm102.941,-0l-14.875,-0l0,14.875l14.875,-0l0,-14.875Zm102.941,-0l-14.875,-0l0,14.875l14.875,-0l0,-14.875Zm-180.145,-0l-14.875,-0l0,14.875l14.875,-0l0,-14.875Zm-77.207,-0l-14.875,-0l0,14.875l14.875,-0l0,-14.875Zm231.617,-0l-14.875,-0l0,14.875l14.875,-0l0,-14.875Zm-283.088,-0l-14.875,-0l0,14.875l14.875,-0l0,-14.875Zm-25.735,-0l-14.875,-0l0,14.875l14.875,-0l0,-14.875Zm386.03,-0l-14.875,-0l0,14.875l14.875,-0l0,-14.875Zm-128.676,-0l-14.875,-0l0,14.875l14.875,-0l0,-14.875Zm-283.089,-0l-14.875,-0l0,14.875l14.875,-0l0,-14.875Zm231.617,-0l-14.875,-0l0,14.875l14.875,-0l0,-14.875Zm51.472,-25.736l-14.875,-0l0,14.875l14.875,-0l0,-14.875Zm77.204,-0l-14.875,-0l0,14.875l14.875,-0l0,-14.875Zm-360.293,-0l-14.875,-0l0,14.875l14.875,-0l0,-14.875Zm257.352,-0l-14.875,-0l0,14.875l14.875,-0l0,-14.875Zm205.882,-0l-14.875,-0l0,14.875l14.875,-0l0,-14.875Zm-128.676,-0l-14.875,-0l0,14.875l14.875,-0l0,-14.875Zm-154.41,-0l-14.875,-0l0,14.875l14.875,-0l0,-14.875Zm-77.207,-0l-14.875,-0l-0,14.875l14.875,-0l-0,-14.875Zm308.824,-0l-14.875,-0l0,14.875l14.875,-0l0,-14.875Zm25.735,-0l-14.875,-0l0,14.875l14.875,-0l0,-14.875Zm-128.676,-0l-14.875,-0l0,14.875l14.875,-0l0,-14.875Zm77.206,-0l-14.875,-0l0,14.875l14.875,-0l0,-14.875Zm-308.824,-0l-14.875,-0l0,14.875l14.875,-0l0,-14.875Zm77.205,-0l-14.875,-0l0,14.875l14.875,-0l0,-14.875Zm-25.735,-0l-14.875,-0l0,14.875l14.875,-0l0,-14.875Zm77.207,-0l-14.875,-0l0,14.875l14.875,-0l0,-14.875Zm25.734,-0l-14.875,-0l0,14.875l14.875,-0l0,-14.875Zm-180.147,-0l-14.875,-0l0,14.875l14.875,-0l0,-14.875Zm-25.735,-0l-14.875,-0l0,14.875l14.875,-0l0,-14.875Zm102.941,-25.735l-14.875,-0l0,14.875l14.875,-0l0,-14.875Zm102.941,-0l-14.875,-0l0,14.875l14.875,-0l0,-14.875Zm-205.882,-0l-14.875,-0l0,14.875l14.875,-0l0,-14.875Zm51.471,-0l-14.875,-0l0,14.875l14.875,-0l0,-14.875Zm-25.736,-0l-14.875,-0l0,14.875l14.875,-0l0,-14.875Zm231.619,-0l-14.875,-0l0,14.875l14.875,-0l0,-14.875Zm102.941,-0l-14.875,-0l0,14.875l14.875,-0l0,-14.875Zm25.735,-0l-14.875,-0l0,14.875l14.875,-0l0,-14.875Zm25.735,-0l-14.875,-0l0,14.875l14.875,-0l0,-14.875Zm-283.089,-0l-14.875,-0l0,14.875l14.875,-0l0,-14.875Zm-51.47,-0l-14.875,-0l0,14.875l14.875,-0l0,-14.875Zm205.883,-0l-14.875,-0l0,14.875l14.875,-0l0,-14.875Zm25.734,-0l-14.875,-0l0,14.875l14.875,-0l0,-14.875Zm-77.206,-0l-14.875,-0l0,14.875l14.875,-0l0,-14.875Zm-77.204,-0l-14.875,-0l0,14.875l14.875,-0l0,-14.875Zm180.145,-0l-14.875,-0l0,14.875l14.875,-0l0,-14.875Zm-154.41,-0l-14.875,-0l-0,14.875l14.875,-0l-0,-14.875Zm180.147,-25.735l-14.875,-0l-0,14.875l14.875,-0l-0,-14.875Zm25.735,-0l-14.875,-0l-0,14.875l14.875,-0l-0,-14.875Zm-257.354,-0l-14.875,-0l-0,14.875l14.875,-0l-0,-14.875Zm102.941,-0l-14.875,-0l-0,14.875l14.875,-0l-0,-14.875Zm51.472,-0l-14.875,-0l-0,14.875l14.875,-0l-0,-14.875Zm51.469,-0l-14.875,-0l-0,14.875l14.875,-0l-0,-14.875Zm-180.145,-0l-14.875,-0l0,14.875l14.875,-0l0,-14.875Zm25.735,-0l-14.875,-0l-0,14.875l14.875,-0l-0,-14.875Zm25.734,-0l-14.875,-0l0,14.875l14.875,-0l0,-14.875Zm-128.676,-0l-14.875,-0l0,14.875l14.875,-0l0,-14.875Zm-51.471,-0l-14.875,-0l0,14.875l14.875,-0l0,-14.875Zm25.736,-0l-14.875,-0l0,14.875l14.875,-0l0,-14.875Zm205.883,-0l-14.875,-0l0,14.875l14.875,-0l0,-14.875Zm51.469,-25.736l-14.875,-0l0,14.875l14.875,-0l0,-14.875Zm-154.41,-0l-14.875,-0l0,14.875l14.875,-0l0,-14.875Zm-102.942,-0l-14.875,-0l-0,14.875l14.875,-0l-0,-14.875Zm128.677,-0l-14.875,-0l-0,14.875l14.875,-0l-0,-14.875Zm180.147,-0l-14.875,-0l-0,14.875l14.875,-0l-0,-14.875Zm-102.941,-0l-14.875,-0l-0,14.875l14.875,-0l-0,-14.875Zm-25.737,-0l-14.875,-0l-0,14.875l14.875,-0l-0,-14.875Zm-25.735,-0l-14.875,-0l0,14.875l14.875,-0l0,-14.875Zm77.207,-0l-14.875,-0l0,14.875l14.875,-0l0,-14.875Zm-154.413,-0l-14.875,-0l0,14.875l14.875,-0l0,-14.875Zm-25.735,-0l-14.875,-0l0,14.875l14.875,-0l0,-14.875Zm25.735,-25.735l-14.875,-0l0,14.875l14.875,-0l0,-14.875Zm102.941,-0l-14.875,-0l0,14.875l14.875,-0l0,-14.875Zm-128.676,-0l-14.875,-0l0,14.875l14.875,-0l0,-14.875Zm154.413,-0l-14.875,-0l0,14.875l14.875,-0l0,-14.875Zm77.204,-0l-14.875,-0l0,14.875l14.875,-0l0,-14.875Zm-180.145,-0l-14.875,-0l0,14.875l14.875,-0l0,-14.875Zm25.735,-0l-14.875,-0l0,14.875l14.875,-0l0,-14.875Zm25.734,-0l-14.875,-0l0,14.875l14.875,-0l0,-14.875Zm-128.676,-0l-14.875,-0l0,14.875l14.875,-0l0,-14.875Zm205.883,-0l-14.875,-0l0,14.875l14.875,-0l0,-14.875Zm25.734,-0l-14.875,-0l0,14.875l14.875,-0l0,-14.875Zm-25.734,-25.735l-14.875,-0l0,14.875l14.875,-0l0,-14.875Zm-25.735,-0l-14.875,-0l0,14.875l14.875,-0l0,-14.875Zm-25.737,-0l-14.875,-0l0,14.875l14.875,-0l0,-14.875Zm-102.941,-0l-14.875,-0l0,14.875l14.875,-0l0,-14.875Zm25.737,-0l-14.875,-0l0,14.875l14.875,-0l0,-14.875Zm25.735,-0l-14.875,-0l0,14.875l14.875,-0l0,-14.875Zm25.734,-0l-14.875,-0l0,14.875l14.875,-0l0,-14.875Z" style="fill:#88726a;"/></svg>