<?xml version="1.0" encoding="UTF-8" standalone="no"?><!DOCTYPE svg PUBLIC "-//W3C//DTD SVG 1.1//EN" "http://www.w3.org/Graphics/SVG/1.1/DTD/svg11.dtd"><svg width="100%" height="100%" viewBox="0 0 563 563" version="1.1" xmlns="http://www.w3.org/2000/svg" xmlns:xlink="http://www.w3.org/1999/xlink" xml:space="preserve" xmlns:serif="http://www.serif.com/" style="fill-rule:evenodd;clip-rule:evenodd;stroke-linejoin:round;stroke-miterlimit:2;"><g><path d="M0,563l563,0l0,-563l-563,0l0,563Zm244.972,-312.347c0,-3.216 -2.611,-5.828 -5.828,-5.828l-167.65,0c-3.217,0 -5.828,2.612 -5.828,5.828l0,61.194c0,3.216 2.611,5.828 5.828,5.828l167.65,0c3.217,0 5.828,-2.612 5.828,-5.828l0,-61.194Zm251.862,0c0,-3.216 -2.612,-5.828 -5.828,-5.828l-167.651,0c-3.217,0 -5.828,2.612 -5.828,5.828l0,61.194c0,3.216 2.611,5.828 5.828,5.828l167.651,0c3.216,0 5.828,-2.612 5.828,-5.828l0,-61.194Z" style="fill:#808080;"/></g></svg>