<?xml version="1.0" encoding="UTF-8" standalone="no"?>
<!DOCTYPE svg PUBLIC "-//W3C//DTD SVG 1.1//EN" "http://www.w3.org/Graphics/SVG/1.1/DTD/svg11.dtd">
<svg width="100%" height="100%" viewBox="0 0 12000 12000" version="1.1" xmlns="http://www.w3.org/2000/svg" xmlns:xlink="http://www.w3.org/1999/xlink" xml:space="preserve" xmlns:serif="http://www.serif.com/" style="fill-rule:evenodd;clip-rule:evenodd;stroke-linejoin:round;stroke-miterlimit:2;">
    <path d="M3943.87,11509.4L8056.14,11509.4L8203.13,11452.9L8392.1,11372.7L8578.16,11286L8761.07,11192.8L8940.58,11093.3L9116.56,10987.5L9288.72,10875.7L9456.86,10758L9620.81,10634.5L9780.36,10505.3L9935.3,10370.6L10085.4,10230.6L10230.6,10085.4L10370.6,9935.3L10505.3,9780.36L10634.5,9620.81L10758,9456.86L10875.7,9288.72L10987.5,9116.56L11093.3,8940.58L11192.8,8761.07L11286,8578.16L11372.7,8392.1L11452.9,8203.13L11526.5,8011.51L11593.4,7817.39L11653.4,7621.08L11706.5,7422.77L11752.7,7222.77L11791.8,7021.27L11824,6818.52L11849,6614.74L11866.9,6410.25L11877.6,6205.27L11881.2,5999.99L11877.6,5794.75L11866.9,5589.77L11849,5385.24L11824,5181.5L11791.8,4978.75L11752.7,4777.21L11706.5,4577.2L11653.4,4378.94L11593.4,4182.63L11526.5,3988.51L11452.9,3796.87L11372.7,3607.9L11286,3421.85L11192.8,3238.95L11093.3,3059.4L10987.5,2883.44L10875.7,2711.28L10758,2543.12L10634.5,2379.18L10505.3,2219.64L10370.6,2064.71L10230.6,1914.58L10085.4,1769.42L9935.3,1629.42L9780.36,1494.74L9620.81,1365.56L9456.86,1242.01L9288.72,1124.27L9116.56,1012.47L8940.58,906.735L8761.07,807.213L8578.16,714.015L8392.1,627.261L8203.13,547.051L8011.51,473.485L7817.39,406.651L7621.08,346.633L7422.77,293.502L7222.77,247.323L7021.27,208.153L6818.52,176.04L6614.74,151.023L6410.25,133.131L6205.27,122.388L5999.99,118.805L5794.75,122.388L5589.77,133.131L5385.24,151.023L5181.5,176.04L4978.75,208.153L4777.21,247.323L4577.2,293.502L4378.94,346.633L4182.63,406.651L3988.51,473.485L3796.87,547.051L3607.9,627.261L3421.85,714.015L3238.95,807.213L3059.4,906.735L2883.44,1012.47L2711.28,1124.27L2543.12,1242.01L2379.18,1365.56L2219.64,1494.74L2064.71,1629.42L1914.58,1769.42L1769.42,1914.58L1629.42,2064.71L1494.74,2219.64L1365.56,2379.18L1242.01,2543.12L1124.27,2711.28L1012.47,2883.44L906.735,3059.4L807.213,3238.95L714.015,3421.85L627.261,3607.9L547.051,3796.87L473.485,3988.51L406.651,4182.63L346.633,4378.94L293.502,4577.2L247.323,4777.21L208.153,4978.75L176.04,5181.5L151.023,5385.24L133.131,5589.77L122.388,5794.75L118.805,5999.99L122.388,6205.27L133.131,6410.25L151.023,6614.74L176.04,6818.52L208.153,7021.27L247.323,7222.77L293.502,7422.77L346.633,7621.08L406.651,7817.39L473.485,8011.51L547.051,8203.13L627.261,8392.1L714.015,8578.16L807.213,8761.07L906.735,8940.58L1012.47,9116.56L1124.27,9288.72L1242.01,9456.86L1365.56,9620.81L1494.74,9780.36L1629.42,9935.3L1769.42,10085.4L1914.58,10230.6L2064.71,10370.6L2219.64,10505.3L2379.18,10634.5L2543.12,10758L2711.28,10875.7L2883.44,10987.5L3059.4,11093.3L3238.95,11192.8L3421.85,11286L3607.9,11372.7L3796.87,11452.9L3943.87,11509.4Z" style="fill:rgb(255,0,24);fill-opacity:0.2;"/>
</svg>
